/* XPM */
static char *_5262_2cc1ef54c70383f0cdbdc1099484c4f6f18e15680e27d5d031efa31b0f7e9625[] = {
/* columns rows colors chars-per-pixel */
"64 64 187 2 ",
"   c #020102",
".  c #0A0001",
"X  c #010B01",
"o  c #01020B",
"O  c #0B050B",
"+  c #040A0B",
"@  c #090A0B",
"#  c #120300",
"$  c #1A0300",
"%  c #170505",
"&  c #001100",
"*  c #001904",
"=  c #010312",
"-  c #000915",
";  c #01021B",
":  c #000C19",
">  c #0C0A15",
",  c #001517",
"<  c #1C0C16",
"1  c #240100",
"2  c #280000",
"3  c #2A1703",
"4  c #321605",
"5  c #331B04",
"6  c #3D1B02",
"7  c #3C1E0C",
"8  c #351B07",
"9  c #3C1C14",
"0  c #3B1E1B",
"q  c #1C2218",
"w  c #272006",
"e  c #3D2002",
"r  c #3C220C",
"t  c #3A2708",
"y  c #3B2313",
"u  c #392818",
"i  c #33251A",
"p  c #000624",
"a  c #151A2C",
"s  c #1A1C33",
"d  c #141F3B",
"f  c #141936",
"g  c #15243E",
"h  c #1B243C",
"j  c #1D283E",
"k  c #122136",
"l  c #222426",
"z  c #222434",
"x  c #22253C",
"c  c #232B3D",
"v  c #352724",
"b  c #460E0D",
"n  c #421700",
"m  c #4B1500",
"M  c #461D01",
"N  c #4A1C01",
"B  c #4C1608",
"V  c #421E08",
"C  c #4A1B0A",
"Z  c #521C01",
"A  c #5B1C00",
"S  c #531707",
"D  c #461C12",
"F  c #4B1F14",
"G  c #442104",
"H  c #4A2103",
"J  c #44220B",
"K  c #4A2309",
"L  c #532402",
"P  c #5A2C0B",
"I  c #432014",
"U  c #792910",
"Y  c #73342F",
"T  c #0E5F1D",
"R  c #0A7211",
"E  c #107412",
"W  c #147019",
"Q  c #125C21",
"!  c #1C6621",
"~  c #6B4E3C",
"^  c #6D513D",
"/  c #161E44",
"(  c #1A1F41",
")  c #162443",
"_  c #1B2444",
"`  c #1C2A44",
"'  c #16234A",
"]  c #1C254B",
"[  c #152849",
"{  c #1D2A4C",
"}  c #0E3A4A",
"|  c #0E2F5C",
" . c #1D2651",
".. c #152953",
"X. c #1D2A54",
"o. c #0B385F",
"O. c #103059",
"+. c #222646",
"@. c #222A43",
"#. c #212A4C",
"$. c #262B4B",
"%. c #29314E",
"&. c #232B52",
"*. c #263254",
"=. c #0D2B66",
"-. c #122F69",
";. c #0D3362",
":. c #07346B",
">. c #0E326C",
",. c #0A237F",
"<. c #122C74",
"1. c #153477",
"2. c #1A3079",
"3. c #0D4A4D",
"4. c #18485F",
"5. c #22525E",
"6. c #124D6B",
"7. c #0C536F",
"8. c #085667",
"9. c #165769",
"0. c #0C5774",
"q. c #0C5B75",
"w. c #095579",
"e. c #03567A",
"r. c #145573",
"t. c #204861",
"y. c #5E514B",
"u. c #60534D",
"i. c #735643",
"p. c #765A45",
"a. c #7A5D4B",
"s. c #685B55",
"d. c #6D605A",
"f. c #951D04",
"g. c #8D2A0D",
"h. c #962C05",
"j. c #9A260C",
"k. c #97280D",
"l. c #962508",
"z. c #8A2715",
"x. c #9B2911",
"c. c #9A2816",
"v. c #953310",
"b. c #A42D0E",
"n. c #A12911",
"m. c #A03018",
"M. c #833228",
"N. c #9D765C",
"B. c #997D58",
"V. c #A86F4A",
"C. c #A67651",
"Z. c #AC7555",
"A. c #A67955",
"S. c #A97A53",
"D. c #A47B59",
"F. c #A97859",
"G. c #B17454",
"H. c #B27A5B",
"J. c #9F7A60",
"K. c #A57A63",
"L. c #A57B67",
"P. c #AA845F",
"I. c #9D8060",
"U. c #A58171",
"Y. c #0C2782",
"T. c #104B87",
"R. c #115592",
"E. c #205380",
"W. c #076184",
"Q. c #D6DADB",
"!. c #DADDDE",
"~. c #D5D8D6",
"^. c #DBE5DC",
"/. c #E4E3DD",
"(. c #E3E9DF",
"). c #DDDFE2",
"_. c #E1DFEA",
"`. c #DEE2E3",
"'. c #E1E5E5",
"]. c #E3EAE5",
"[. c #E3E6E9",
"{. c #E5E9EA",
"}. c #E9ECEC",
"|. c #E9E9E7",
" X c #EAEAF1",
".X c #EEF2F3",
"XX c #FDFFFC",
/* pixels */
"M M M M M M M M M M M M M M M M M M M M M M M M M M M M M M M M M M M M M M M M M M M M M M M M M M M M N H M M M M M M M M M M ",
"M M M M M M M M M M M M M M M M M M M M M H M M M M M M M M M M M M M H M M M M M M M M M M M M H M M M M M M M M M M M M M M M ",
"M M M M M M M M M H M M M M M M M M M M M M M M M M M M M M H M M M M N M M M M M M M H M M M M M M M M M M M M M M M M M M M M ",
"M M M M M M M M M M M M M M M M M M M M M M M M M M M M M M M M M M M M M M M M M M M M M M M M M M M M M M M M M M M M M M H M ",
"M M M M M M M M M M M M M M M M M M M M M M M M M M M M M M M M M M M M M M M M M M M M M M H N M M M M M H M M M M M M M M M M ",
"M M M M M M M M M M M M M M H M M M M M M M M M M H M M M M M M M M M M M M M M M M M M M M M M M M M M M M M M H M M M M M M M ",
"M M M M M H M M M M M M M M M M M M M M M M M M M M M M M M M M M M M M M M M M M M M M M M M M M M M M M M M M M M M M M M M M ",
"M M M M M M M M N M M M M M M M M M M M M M M M M M M M M M M M M M M M M H M M M M M M M M M M M M M M M M M M M M M M M M M M ",
"N n 6 V N N N M n K M V V 6 G V H 6 M G G G G G M C M M G M G C M M M M M M M M M M M M M M M M M M M M M M M H M M M M M M M M ",
"L H r V M m M V N H N n N m n N N n M C m M C N N M m M 6 n M B M M M M M M M M M M M H M M M M M M M M M M M M M M M M M M N M ",
"N M J V N N N r N M N N Z H N N N m Z C m n N m N M M M G G n m M M M M M M M M M M M M M M M M M M M M M M M M M M M M M M H M ",
"M M M M N N G 5 G 6 6 e G G 6 V e J G e 6 e G G 6 6 e r r t 6 L M H M M M M M M M M M M M M M M M M M M M M M M M M M M M M M M ",
"N K M M M N n $                 .     .       . o . .   = > # 6 M M M M M M M M M M M M M M M M M N H M M M M M M M M H M M M M ",
"N N 6 M Z N 7 . g ` ` ` ` ` { g ] _ ) _ #.] ) _ ] @.+.( / / . 7 M M M M M M M M M M M M M M M M M M M M M M M M M M M M M M M M ",
"M H n M N M r . ` { ) _ _ ` %.g #._ _ _ +.h d %._ x z _ *.&.. V M M M M M M N M M M M M M H M M M M M M M M M M M M M M M M M M ",
"N K M N m M r . z z = o o = a =             @ l o X   o g @.. M M M M M M M H M M M M M M M M M M M M M M M M M M M M M M M M M ",
"M N N M G N r . x o       o   `.].`.}.`.{.!.{.    o .     `   M M M M M M M M M G H q 2 . 2 3 S G J Z M J b @   , 3 A N M J H M ",
"M N M V M N r . +.o       '.{.`.`.{.`.`.`.`.{.`.'.O     + g . M M M M M M M M M Z N # M.Y U % B Z C m G e # t.9.3.# m N V C N M ",
"M M M M M n J . h o . X '.[.'.`.`.{.{.`.`.{.`.`./.`.O   + g . M M M M M M M M M N Z # c.z.n.# 0 B 4 P 6 5 o 0.W.9.  M M 7 K m H ",
"C M N M M M r . #.= @ . !._..   `.`.`.`.[.Q.+   ].).    = { O 6 M M G M M M M M n K X k.x.b.. : O o 7 M D > w.e.r.  C C 6 N N M ",
"C M N M M N J . ) c   ~.[.        `.{.{.~.+       }.[.  c ` . G M M M M M M M M C 7   g.m.j.O | <.;.# Z N . r.e.7.o C M e M N M ",
"M N N G M N r . ) c o |.    @ XX  {.`.`.{.  XX       Xo j [   G M M M M M M M M C I   z.x.f.= 1.Y.<.O e 6 . 9.q.e.o V N G M M 6 ",
"M N N M M n r . ' `   !.. o       Q.`.{.{.  o     o [.  j [ O 6 M M M M M M M M M K . c.x.b.= =.1.-.o & &   8.q.q.  N N G M M 6 ",
"C N M M M M r . { h o `.        `.{.    `.`.      o [.o j {   G M M M M M M M M G G . c.l.l.+ :.<.;.X ! ! X r.T.7.  Z Z M H H 6 ",
"G M M M M N V . [ ` j o _.    ^.`.{.!.`.`.`.`.    (.  c ' &.o e M M M M M M M M M e . x.h.x.  <.<.:.o R E   0.w.7.  N N 7 M M M ",
"M M N M M n J . g ) c o [.`.`.`.`.`.{.}.`.{.[.`./.`.= h &.] . M M M M M M M M M M e   x.h.k.  <.<.:.o R E   0.w.0.  N N M M M M ",
"M N N J M M r . { _ _ x o o `.`.'.{.`.`.`.).{.`.o > a %.] / . e M M M M M N M M M M O x.h.k.o <.<.:.o R E   0.w.7.  M M 6 M N n ",
"N M M V M M J   ] #._ +.x z o             X     x f %.' ..{ . G H M M M H M M M M 6   x.h.j.  <.<.:.o R E   0.w.7.  M N e M N M ",
"N N M M M N J . ' ' ] #.+.z o o   `.`.{.}.o   o +.#.) ] X.{ . G M M M M M M M M M e . x.h.k.  <.<.:.o R E   0.w.7.o N N 6 G N M ",
"M N M V M N r . &./ X.{ _ = [.    `.`.`.`.  + ].p ] g &.' { . 6 M M M M M M M M M e   x.h.k.  <.<.=.o R E   0.w.7.o N N e M M n ",
"C M N J M M V   #./ ' ' ] j   |.{.`.`.{.Q..XQ.  ( { ` %.] #.. K M M M M M M M M N 6   x.h.k.  <.<.:.o R E   0.w.7.  N M 6 M M M ",
"M M N M M N J . _ _  .{ ) c     `.{.`.`.}.Q.+   +._ ` g ) #.  N H M M M M M M M M 6 O x.h.k.o <.<.:.o R E   0.w.7.  M M M M N M ",
"M M n N N M y .  .] ] { ) @.` ; o       + o   l ' _ +.' ..` . M M M M M M M M M A V . Y v.j.% =.Y.;.  W R X 8.R.5.  6 S L 5 6 F ",
"M G M M M G y . ' _ ] ] h ` ` p = s x x s ; = s { #.#.{ ..` . G M M M M M M M M 6 6 2 z.h.g.# O.=.} @ Q T * 3.6.4.: D C M M n m ",
"N N V H N N y . #.] ] @.] ` @.k ' ] { #.#._ / &.[ ] _ X...h . r M M M M M M M M i . o < . #   ; ; = . X & . o : ,   # # 5 t M N ",
"M G V N N M 6 . _ _ h _ ` h j ` ` h h _ ` ` ` ` ` j h ` ' k @ u M M M M H M M M # J.F.V.S.C.D.K.F.Z.H.F.A.G.G.C.I.D.K.L.% r C m ",
"n M M M n M n $ . . .     . . . . . .   .     . . . .   o . . 8 N M M M M M M M # N.H.C.P.I.A.V.F.Z.A.S.S.S.G.C.S.F.K.U.# r V N ",
"N M 7 V M L K 4 C 7 J C C V 6 7 J 7 7 6 6 V J V r V V V V 6 n L H M M M M M M M v . . +     % $             .   # # # . 8 t M N ",
"N M V V n M K J N n M M N N N N M M M N M N M N n M M N H M N N M M M M M M M M J 6 N M A K n J C C J C C V r D D 9 9 I n N Z m ",
"N n J J M M M M H 6 H M M K N M M M M M M H M M M H M M M V G H M M M M M M M M m H Z e B G C V N M N N M M e M N M n N M M H 7 ",
"M M M M M M M M M M M M M M M M M M H M M M M M M M M M M M M M M M M M M M M M M M M M M M M M M M M M M M M M N M M M M M M M ",
"M M M M M M M M M H M M M M M M M M M M M M M M M M M M M M M M M M M M H M M M M M M M M M M M M M M M M H M M M M M M M M M M ",
"M M M M M M M M M M M M M M M M M M M M M M M M M M M M M M M M M M M M M M M M M M M M M M M M M M M M M M M M M M M M M M M M ",
"M M H M M M M M M M M M M M M M M M M M M M M M H M M M M M M M M M M M M M M M M M M M M M H M M M M M M M M M M M M M M M M M ",
"M M M M M M M M M M M M M H M M M M M M M M M M M M M M M M M H M M M M M M M M M M M M M M M M M M M M M M M M M M M M M M M M ",
"M M M M M M M M M M M M M N M M M M M M M M M M M M M M M M M N M M M M M M M M M M M M M M M M M M M M M M M M M H M N M M M M ",
"M M M M M M M H M M M M M M M M M M M M H M M M M M M M M M M M M M M M M M M M M H M M M M M M M M H M M M M M M M M M M M M M ",
"M M M M M M M M M M M M M M M M M M M M M M M M M M M M M M M M M M H M M M M M M N M M M M M M M M M M M M M M M M M M M M M M ",
"M M M N M M M M M M M M M M M M M M M M M M M N M M M M M M M M M M M M M M M M M M M M M M M M M M M M M M M M M M M M M M M M ",
"M M M H M M M M H M M M M M M M M M M M M M M M M M M M M M M M M M M M M M M M M M M M M M M M M M M M M M M M M M M M M H M M ",
"M M M M M M M M M M M M M M M M M M M M M M M M M M M M M M M M M M M M M M M M M M M M M M M M M M M M M M H M M M M M M M M M ",
"M M M M M M M M M M M M M M M M M M M M M M M M M M H M M M M M M M M M H N M M M M M M M M M M M M M M M M M M M M M M M M M M ",
"M M M M M M M M M M M M M H M M M M M M M M M M M M M M M M M M M M M M M M M M M M M M M M M M M N M M M M M M M M M M M M M M ",
"M M M M H M M M M M M M M N M M M M M M M M M M M M M M M M M M M M M M M M M M N M M M M M M M M H M M M M M M M M M M M M M M ",
"M M M M M M M M M H M M M M M M M M M M M M M M M M M M M M M H M M M H M M M M M M M M M M M M M M M M M M M M M M M M N M M M ",
"M M M M M M M M M M M M M M M M M M M M M M M M M M M M M M M M M M M M M M M M H M M M M M M M M M M M M M M M M M M M H M M M ",
"N M N n N M N M N M H M N N N M H N M M H M N N N M N n N M M N N M H M N M N M M M Z M M N M N N M N n N M N M H N H M N M M N ",
"M G n G 6 M 6 G n H 6 H 6 M 6 M n G n H 6 M 6 V M K n G 6 G n G n H 6 H 6 N 6 M 6 J M G 6 M 6 G M G n G 6 M 6 G n G 6 H 6 N 6 M ",
"N M M n H H M n H M n n K M M n G M M n H N M V G M n n H H M n H M n n K N M n M M n n K N M n N M M n H H M n H M n n K M M n ",
"7 J I 6 J 6 G J 7 G J 7 J 6 V V V V J 7 J 6 V V V V J V J 6 V r J 7 J 7 J 6 V V G J J V J 6 V V 7 J I 6 J 6 G J V V J 7 J 6 V V ",
". . . . . . # . . . . . . . # . . . . . . . . . . . . . . . . . . . . . . . . . . . . . . . # . . . . . . . # . . . . . . . # . ",
"u.% s.. d.. y.. u.# s.. d.. y.. y.# s.. d.. u.# u.# s.. d.. y.# y.# s.. d.. y.# u.. s.. d.. y.. u.% s.. d.. y.. u.# s.. d.. y.. ",
"a.^ i.i.i.i.a.^ a.^ i.p.i.i.a.^ a.^ i.i.i.i.a.^ a.~ i.p.i.i.a.^ a.^ i.p.i.i.a.^ a.^ i.i.i.i.a.^ a.^ i.i.i.i.a.^ a.^ i.p.i.i.a.^ ",
"^ p.i.^ p.i.^ i.^ p.i.^ p.i.^ p.^ p.i.^ p.i.^ i.^ p.i.^ p.i.^ p.^ p.i.^ p.i.^ p.^ p.i.^ p.i.^ p.^ p.i.^ p.i.^ i.^ p.i.^ p.i.^ p."
};
