/* XPM */
static char *_1334_cf8d97a501fc1bbeb68e2305cc81afbdae1358524773f6e1a98830d908f21f15[] = {
/* columns rows colors chars-per-pixel */
"64 64 214 2 ",
"   c #010103",
".  c #0C0000",
"X  c #000C01",
"o  c #01000B",
"O  c #00090D",
"+  c #140200",
"@  c #1C0000",
"#  c #01100B",
"$  c #131105",
"%  c #050311",
"&  c #0A0614",
"*  c #03061B",
"=  c #03171D",
"-  c #131218",
";  c #200000",
":  c #383C09",
">  c #000828",
",  c #000923",
"<  c #070031",
"1  c #002129",
"2  c #5E2B02",
"3  c #4D3B0D",
"4  c #4C3608",
"5  c #5A3500",
"6  c #553A05",
"7  c #5C3A05",
"8  c #5D350A",
"9  c #5C3B0E",
"0  c #573005",
"q  c #572E16",
"w  c #4B3A17",
"e  c #5B3415",
"r  c #543A13",
"t  c #5C3A12",
"y  c #533A1C",
"u  c #5C3B19",
"i  c #5A351C",
"p  c #642D03",
"a  c #672B08",
"s  c #653403",
"d  c #6A3404",
"f  c #65360B",
"g  c #633A0C",
"h  c #673B07",
"j  c #602E13",
"k  c #722B15",
"l  c #6B3414",
"z  c #643C13",
"x  c #6B321B",
"c  c #623B1B",
"v  c #643313",
"b  c #723611",
"n  c #5E3223",
"m  c #5D3A22",
"M  c #573C26",
"N  c #5D3832",
"B  c #68382A",
"V  c #0B5F14",
"C  c #066E0F",
"Z  c #037305",
"A  c #036F15",
"S  c #0C6D1B",
"D  c #00661A",
"F  c #00731D",
"G  c #0E7317",
"H  c #156A19",
"J  c #0B5F2D",
"K  c #0B6721",
"L  c #026A22",
"P  c #07632E",
"I  c #126A20",
"U  c #037327",
"Y  c #037C29",
"T  c #036937",
"R  c #007234",
"E  c #067238",
"W  c #55420C",
"Q  c #504002",
"!  c #4E4210",
"~  c #5E421B",
"^  c #64411B",
"/  c #54402B",
"(  c #544225",
")  c #684D38",
"_  c #6E513A",
"`  c #72543C",
"'  c #6D0F59",
"]  c #660E58",
"[  c #6E125B",
"{  c #72145E",
"}  c #7A1C58",
"|  c #6C0F65",
" . c #6C0E6A",
".. c #660C6E",
"X. c #700D65",
"o. c #730B6C",
"O. c #7C0F6C",
"+. c #790769",
"@. c #6D1667",
"#. c #691C67",
"$. c #671469",
"%. c #6E136C",
"&. c #6C1B6A",
"*. c #641B6A",
"=. c #711464",
"-. c #761963",
";. c #71126C",
":. c #78156D",
">. c #741B6B",
",. c #791464",
"<. c #670C75",
"1. c #750F72",
"2. c #7E0F76",
"3. c #78087B",
"4. c #6C1372",
"5. c #6C1A78",
"6. c #741471",
"7. c #7C1476",
"8. c #751973",
"9. c #741279",
"0. c #007B4B",
"q. c #077446",
"w. c #077257",
"e. c #0C7D6B",
"r. c #625149",
"t. c #715641",
"y. c #765B46",
"u. c #785A42",
"i. c #795E49",
"p. c #6C5B53",
"a. c #705F57",
"s. c #8A116E",
"d. c #008B73",
"f. c #B1E300",
"g. c #DDDE06",
"h. c #D4DC17",
"j. c #D9EC07",
"k. c #C3F00D",
"l. c #DAFA00",
"z. c #D5EB13",
"x. c #C6F918",
"c. c #DDF513",
"v. c #E5EC06",
"b. c #ECED0A",
"n. c #EBEC04",
"m. c #F4EC07",
"M. c #EAF305",
"N. c #F4F406",
"B. c #EAEA13",
"V. c #E0ED1A",
"C. c #F3EF1C",
"Z. c #E2F71B",
"A. c #E7F114",
"S. c #FFF11D",
"D. c #C5F93C",
"F. c #6F0A80",
"G. c #07AC8E",
"H. c #1CB19B",
"J. c #0BB399",
"K. c #34AA9C",
"L. c #19AAA8",
"P. c #19B3AF",
"I. c #1CBCBC",
"U. c #19B9B4",
"Y. c #03B5A7",
"T. c #28A9A8",
"R. c #25B5A9",
"E. c #29B1A3",
"W. c #3DB9AF",
"Q. c #27B8BC",
"!. c #34BBBC",
"~. c #32B2BD",
"^. c #5E9BB7",
"/. c #0BBFCF",
"(. c #08BAC9",
"). c #1ABAC6",
"_. c #14BACB",
"`. c #1BBACE",
"'. c #17B7C4",
"]. c #0EBCDC",
"[. c #06BED5",
"{. c #14B7D2",
"}. c #14BDD4",
"|. c #1DBAD1",
" X c #17BDDA",
".X c #1CBBDC",
"XX c #1BB4D9",
"oX c #35AECB",
"OX c #2DB2C4",
"+X c #20B7CA",
"@X c #23B8C6",
"#X c #36B7C6",
"$X c #24BBD2",
"%X c #28B9D2",
"&X c #23B7DB",
"*X c #27B8DA",
"=X c #35B5D7",
"-X c #2AA7C7",
";X c #0CB4E3",
":X c #1DB4EE",
">X c #14B8E2",
",X c #24B8E0",
"<X c #0AC4C9",
"1X c #1CC2C2",
"2X c #15C3C7",
"3X c #11C1D3",
"4X c #1DC8D9",
"5X c #0EC7D9",
"6X c #24C7C6",
"7X c #21C2CC",
"8X c #2AC6C5",
"9X c #32C3D6",
"0X c #18C6E1",
"qX c #45C1D9",
/* pixels */
";.;.;.;.;.;.;.;.%.;.;.;.;.;.;.;.;.;.;.;.;.;.;.;.;.;.;.;.;.;.;.;.;.;.%.;.;.;.;.;.6.%.o.;.;.;.;.;.;.;.;.;.%.;.;.;.;.;.;.;.;.;.;.;.",
";.;.;.;.;.;.;.;.;.;.;.;.;.;.;.;.;.;.;.;.;.;.;.;.;.;.%.;.;.;.;.;.;.;.;.;.;.;.;.;.;.;.;.;.;.;.;.;.;.;.;.;.;.;.;.;.;.;.;.;.;.;.;.;.",
";.;.;.;.;.;.;.;.;.;.;.;.;.;.;.;.;.;.;.;.;.%.o.;.;.;.;.;.;.;.;.;.;.;.;.;.6.;.;.;.;.;.;.;.%.;.;.;.;.;.;.;.;.;.;.;.;.;.;.;.%.;.;.;.",
";.;.;.;.;.;.;.;.;.;.;.;.;.;.;.;.;.;.;.;.;.;.;.;.;.;.;.;.;.;.;.;.;.;.;.;.%.;.;.;.;.;.;.;.;.;.;.;.;.;.;.;.;.;.;.;.;.;.;.;.;.;.;.;.",
";.;.;.;.;.;.;.;.;.;.;.;.;.;.%.;.;.;.;.;.;.;.;.;.;.;.;.;.;.;.;.;.;.;.;.;.o.%.;.;.;.;.;.%.;.;.;.;.;.;.;.;.;.;.;.;. .6.;.;.;.;.;.;.",
";.;.%.;.;.;.;.;.;.;.;.%.;.;.;.;.;.;.;.;.;.;.;.;.;.;.;.;.;.;.;.;.;.;.;.;.;.;.;.;.;.;.;.;.;.;.;.;.;.;.;.;.;.;.;.;.;.;.;.;.;.;.;.;.",
";.;.;.;.;.;.;.;.;.;.;.;.;.o.;.;.;.;.;.;.;.;.;.;.;.;.;.;.;.;.;.%.;.;.;.;.;.;.;.;.;.;.;.;.;.;.;.;.;.%.;.;.;.;.;.;.;.;.;.;.;.;.;.;.",
";.;.;.;.;.;.;.;.;.;.;.;.;.;.;.;.;.;.%.;.6.;.;.;.;.;.;.;.;.;.;.;.;.;.;.;.;.;.;.;.;.;.;.;.;.;.;.%.;.;.;.;.;.;.;.;.;.;.;.;.;.;.;.;.",
";.;.;.;.;.;.;.;.;.;.;.;.;.;.;.;.*.@.X.@.=.&.$.o.@.@.@.@.@.@.@.@.$.5. .6.@.,. .3.1.$.%.:.X.>.&.F.;.;.;.;.;.;.;.;.;.;.;.;.;.;.;.;.",
";.;.;.;.;.;.;.;.;.;.;.;.;.;.%.;.4.9.s.o.o.4. .2.1.1.1.1.1.1.1.6.X.O.+.O.,.=.6.9.:.$.4.s.3.4.[ -.;.;.;.;.;.;.;.;.;.;.;.;.;.;.;.;.",
";.;.%.;.;.;.;.;.;.;.;.;.;.;.;.;.@.$.4.1.;.=.$.6.>.@.@.=.=.=.@.@.>.=.1. .@.[ &.*.[ #.#.] [ 5.4.=.;.;.;.;.;.;.;.;.;.;.;.;.;.;.%.;.",
";.;.o.;.;.;.;.;.;.;.;.;.;.;.;.;.s.....s.:.>.:.X.1.6.6.4.6.6.1.;.>...5.<.7.;.:.4.;.>.4.<.8.<.<.} ;.;.;.;.;.;.;.%.;.;.;.;.;.;.;.;.",
";.%.;.;.;.;.;.;.;.;.;.;.;.;.;.;.; # O o   X                     + . = o o       . .   .     - % ;.%.;.;.;.;.;.;.;.;.;.;.;.;.;.;.",
";.;.;.;.;.;.;.;.;.;.;.;.;.;.;.;.1 P.2X%X@X6X@X+X'.).).).).).).).X = T.OX#XQ.~.I.z.v.C.N.v.n.h.$ ;.;.;.;.;.;.;.;.%.;.;.;.;.;.;.;.",
";.;.;.;.;.;.;.;.;.;.6.%.;.;.;.;.* Q.5XXX3X<X{.>X|.|..X.X|..X|..X  * OX$X3X<X$X/.D.l.j.B.n.m.A.o ;.;.;.;.;.;.;.%.o.;.;.;.;.;.;.;.",
";.;.;.;.;.;.;.;.%.;.;.;.;.;.;.;.o W.'.+X2XI.+X&X|.`.`.).`.|.`.`.+ O Q.3X].3X=X{.^.x.c.V.M.b.Z.X ;.;.;.;.;.;.;.6.;.;.;.;.;.;.;.;.",
";.;.;.;.;.;.;.;.;.;.;.;.;.;.;.;.  )..X`.`.|.`.`.`.|.`.`.|.`.`.`.    ).|.). X+X{.$Xx.N.b.z.b.B.X ;.;.;.;.;.;.;.;.;.;.;.;.;.;.;.;.",
";.;.;.;.;.;.;.%.;.;.;.;.;.%.;.;.  )..X`.`.|.`.+X`.`.|.`.|.`.|.`.    ).|.).XX+X`.'.qXf.S.N.n.z.. ;.;.;.;.;.;.;.;.;.;.;.;.;.;.6.;.",
";.;.;.;.;.;.;.;.;.;.;.;.;.;.;.;.  )..X`.`.|.`.`.`.{.`.|.`.`.`.`.    ).|.). X+X`.$X{.9Xk.z.Z.m.o ;.;.;.;.;.;.;.;.;.;.;.;.;.;.%.;.",
";.;.;.;.;.;.;.;.;.;.;.;.;.;.;.;.  )..X`.`.$X2X`.`.|.`.`.`.}.`.`.    ).|._.XX+X`._.`.~. X=Xj.c.% ;.;.;.;.;.;.;.;.;.;.;.%.;.;.;.;.",
"%.;.;.;.;.;.;.;.;.;.;.;.;.;.;.;.  ).XX`.`.|.`.`.`.|.`.`.`.`.`.|..   ).`.). X`.`.6X'.(.&XQ.`.oX+ ;.;.;.;.;.;.;.;.;.;.;.;.;.;.;.;.",
";.;.;.;.;.;.;.;.;. .;.;.;.;.;.;.  )..X`.`.`.`.`.`.`.`.|.`.{.`.`.    ).`.).XX+X`.[.%X%X).:X5X(.X ;.;.;.;.;.;.;.%.;.;.;.;.;.;.;.;.",
";.;.;.;.;.;.;.;.;.6.;.;.;.;.;.;.  )..X`.`.|.`.`.`.`.|.`.|.`.|.`.    @X|.). X`.`.`.].'.|.Q.Q.(.  ;.%.;.;.;.;.;.o.;.;.%.;.;.;.;.;.",
";.;.;.;.;.;.;.;.;.;.;.;.;.;.;.;.  )..X`.`.$X2X@X`.}.`.`.|.`.`.`.    ).|.). X@X`.%X;XI.:X(.&XoX. ;.;.;.;.;.;.;.;.;.;.;.;.;.;.;.;.",
";.;.;.;.;.;.;.;.;.;.;.;.;.;.;.;.  )..X`.`.`.`.`.`.`.`.|.`.`.|.|.    ).|.). X+X`.`.`.|.`.`..X).  ;.;.6.;.;.;.;.;.;.;.;.;.;.;.;.%.",
";.;.;.;.;.;.;.;.;.;.;.;.;.%.;.;.  )..X`.`.|.`.`.`.`.`.`.`.`.`.`.    ).|.). X+X|.$X2X|.`.`..X).  ;.;.%.;.;.;.;.;.;.;.;.;.;.;.;.o.",
"%.;.6.%.;.;.%.;.;.;.;.;.;.;.;.;.  )..X`.`.`.`.$X|.`.|.`.}.`.`.`.    ).|.).XX+X`.`.`.`._.`.,X).  ;.;.;.;.;.;.;.;.;.;.;.;.;.;.;.;.",
";.;.;.o.;.;.;.;.;.;.;.;.;.;.;.;.  )..X`.`.|.).`.`.`.|.`.`.`.|.|..   ).`.). X`.`.`.|.+X`.)..X).  ;.;.;.;.;.;.;.;.;.;.;.;.;.;.;.;.",
";.;.;.;.;.;.;.;.;.;.;.;.;.;.;.;.  ).&X`.).|.2X$X`.|.`.`.|.`.`.`.    ).|.).XX`.`.`.`.$X`.`..X).  ;.;.;.;.;.;.;.;.;.;.;.;.;.;.;.;.",
";.;.;.;.;.;.;.;.;.;.;.;.;.;.;.;.  )..X`.`.|.`.`.`.`.|.`.|.`.|.`.    ).|.). X`.`.$X2X|.`.`..X).  %.o.;.;.%.;.;.;.;.;.;.;.;.;.;.%.",
";.;.;.;.;.;.;.;.;.;.;.;.;.;.;.;.  )..X`.`.`.`.`.}.`.`.`.`.`.`.`.    ).|.). X+X|.`.`.`.`.`..X).  ;.;.;.;.;.;.;.;.;.;.;.;.;.;.;.;.",
";.;.;.;.;.;.;.;.%.;.;.;.;.;.;.;.  )..X`.`.`.`.`.`.`.`.|.`.{.`.|.    ).|.'.XX+X`.`.`.+X`.`..X).  ;.;.;.;.;.;.;.;.;.;.;.;.;.;.;.;.",
";.;.;.;.;.;.;.;.;.;.;.;.;.;.;.;.* 7XU.P.0X].*X[.`..XXX.X).Q.|.,X+ , )._.|.}.-X<X}.$XXX5X$XY.!.< ;.;.;.;.;.;.;.;.;.;.;.;.;.;.;.;.",
";.;.;.%.;.;.;.o.;.;.;.;.;.;.;.;.o L.w.0.).oXE.@XP.4X#XU.J.e.U.<XX X E.8XH.0.w.R.2X1X#XI.L.d.G.> ;.;.;.;.;.;.;.;.;.;.;.;.%.;.;.;.",
";.;.;.;.;.;.;.%.;.;.;.;.;.;.;.;.+ M 3 A m n Y y / R.N r q.q c K.. ; q.M B D v W L n ( U u 2 Y ; ;.;.;.;.;.;.;.;.;.;.;.;.;.;.;.;.",
";.;.;.;.;.;.;.;.;.;.;.;.;.;.;.;.X e g G s a F d t R u f F 3 l E X   R p s Z h 5 U k r A z k Y   ;.;.;.;.;.;.;.;.;.;.;.;.;.;.;.;.",
";.%.;.;.;.;.;.;.%.;.;.;.;.;.%.;.+ B a 5 g g s 9 7 f v 4 g s 3 9 X . B z 9 5 s x 9 6 d 5 5 s u   ;.;.;.;.;.;.%.;.;.;.;.;.;.;.;.;.",
";.6.;.;.;.;.;.;.;.;.;.;.;.;.;.;.+ q f 9 5 7 z 6 s b 2 c 8 7 9 g % . 3 0 r / m j 9 9 f g 6 f i   ;.;.;.;.;.;.;.;.;.;.;.%.;.;.;.;.",
";.;.;.;.;.;.;.;.;.;.;.;.;.;.;.;.* v y P 8 i T u z S u n I : B V     T l g A w t K x w K w u J   ;.;.;.;.;.;.;.;.;.;.;.;.;.;.;.;.",
";.;.;.;.;.;.;.;.;.;.;.;.;.;.;.;.  8 W S g 8 U t 5 R s 7 P c s R o X G e e S Q 5 A W 8 H 3 g F X ;.;.;.;.;.;.;.;.;.;.;.;.;.;.;.;.",
";.;.;.;.;.;.;.;.;.;.;.;.;.;.;.;.        o     o   o     o   o       o     o     o     o o   o   ;.;.;.;.;.;.;.;.;.;.;.;.;.;.;.;.",
";.;.;.;.;.;.;.;.%.;.;.;.;.;.;.;.=.=.=.@.=.=.=.=.=.=.=.=.=.=.=.=.=.=.=.=.=.=.=.=.=.=.{ =.=.=.=.=.;.;.;.;.;.;.;.;.;.;.;.;.;.;.;.;.",
";.;.;.%.;.;.;.;.;.;.;.;.;.;.;.;.;.o.6.:.o.:.;.;.o.;.;.1.;.;.:.;.o.:.;.o.6.;.;.o.o.6.;.;.6.o.;.o.;.;.;.;.;.;.;.;.;.;.;.;.;.;.%.;.",
";.;.;.;.;.;.;.;.;.;.;.;.;.;.;.;.&.@.@.%.%.%.@.@.>.%.@.@.@.%.@.%.&.%.@.&.@.%.@.@.%.@.%.@.&.=.%.$.%.;.;.;.;.;.;.;.;.;.;.;.;.;.;.;.",
";.;.;.;.;.;.;.;.;.;.;.;.;.;.%.;.6.1.o.7.6.6.1.7.6.6.6.1.:.7.6.1.6.1.6.1.6.1.1.7.6.7.1.6.1.:.1.:.;.;.;.;.;.%.;.;.;.;.;.;.;.;.;.;.",
";.;.;.;.;.;.;.;.;.;.;.;.;.;.;.;. .6.%. .4.;.;. .o. .1.%. .4.o.%. .6.1. .1.%.4. .%.%.4. .4.o.1. .;.;.;.;.;.;.;.;.%.;.;.;.;.;.;.;.",
";.;.;.;.;.;.;.;.;.;.;.;.;.;.;.;.;.;.>.%.;.>.;.>.;.>.%.>.;.>.>.%.;.;.>.>.@.;.>.>.>.>.%.>.>.>.%.>.;.;.;.;.;.;.;.;.o.;.;.;.;.;.;.;.",
";.;.;.;.%.;.;.;.;.;.;.;.;.;.;.;.;.:.;.;.;.;.%.o.;.;.;.;.%.o.;.;.;.;.;.;.;.;.o.;.o.;.o.;.o.;.;.;.;.;.;.;.;.;.;.;.;.;.;.;.;.;.;.;.",
";.;.;.;.;.;.;.;.;.6.;.;.;.;.;.;.;.;.;.;.;.;.;.;.;.;.;.;.;.;.;.;.;.;.;.;.;.;.;.;.;.;.;.;.;.;.;.;.;.;.;.;.;.;.;.;.;.;.;.;.;.;.;.;.",
";.;.;.;.;.;.;.;.;.%.;.;.;.;.;.;.;.;.;.;.;.;.;.;.;.;.;.;.o.%.;.;.;.;.;.;.;.;.;.;.;.;.;.;.%.;.;.;.;.;.;.;.;.;.;.;.;.;.;.;.;.;.;.;.",
";.;.o.%.;.;.;.;.;.;.;.;.;.;.;.;.;.;.;.;.;.;.;.;.;.;.;.;.;.;.;.;.;.;.;.;.;.;.;.;.;.;.;.;.;.;.;.;.;.;.;.;.;.;.;.;.;.;.;.;.%.6.;.%.",
";.;.;.;.;.;.;.;.;.;.;.%.;.;.;.;.;.;.;.;.;.;.;.;.;.;.;.;.;.;.;.;.;.;.%.;.;.;.;.;.;.;.;.;.;.;.;.;.;.;.;.;.%.;.;.;.;.;.;.;.;.;.;.o.",
";.;.;.;.;.;.;.;.;.;.;.;.;.;.;.;.;.;.;.;.;.;.;.;.;.;.;.;.;.;.;.;.;.;.;.;.;.;.;.;.;.;.;.;.;.;.;.;.;.;.;.;.;.;.;.;.;.;.;.;.;.;.;.;.",
";.;.;.;.;.%.;.;.;.;.;.;.;.;.;.;.;.;.;.;.;.;.;.;.;.;.;.;.;.;.;.;.;.;.;.;.;.;.;.;.;.;.;.;.;.;.;.;.;.%.;.;.;.;.;.;.;.;.;.;.;.;.;.;.",
";.;.;.;.;.;.;.;.;.;.;.;.o.%.;.;.;.;.;.;.;.;.;.;.;.;.;.;.;.;.;.;.;.;.;.;.;.;.;.;.%.;.;.;.;.;.;.;.;.;.;.;.;.;.;.;.;.;.;.;.%.;.;.;.",
";.;.;.;.;.;.;.;.;.%.;.;.;.;.;.;.;.;.;.;.;.;.;.;.%.;.;.;.;.;.;.;.;.;.;.;.;.;.;.;.;.;.;.;.;.;.;.%.;.;.;.;.;.;.;.;.;.;.;.;.;.;.;.;.",
";.;.:.X.:.o.;.=.:.;.:.| :.o.:.=.:.=.:.X.:.;.;.;.:.;.:.| :.X.;.=.:.o.:.| :.,.;.;.:.;.:.X.>.X.:.o.:.;.:.| :.X.;.;.:.;.:.X.:.X.;.;.",
":.6. .8.%.8. .6.;.6. .8. .8.%.6.;.8. .8.o.8. .6.;.6. .8.o.8.;.6.%.6.%.6. .6.%.:.;.8.%.6.o.8.;.8.;.6.%.6.o.8. .6.;.6. .8. .8.;.:.",
";.%.@.| 8.;.%.%.6.%.%.| 8.6.%. .4.%. .| 8.>.%.%.%.%. .| 8.8.%.%.%.%.%.%.8.4.%.%.;.%.%. .8.;.%.$.;.%.%.| 8.>.%.%.%.%.%. .8.6.%.%.",
"{ =.=.{ -.[ { { { { -.[ -.' { { { { -.{ =.' { { { { -.[ -.' { =.{ { -.[ -.' { { { { =.{ -.' { { { { -.[ =.[ { { { { -.[ -.' { { ",
"% o o % o o & o % o o % o o & o % o o % o o & o % o o % o o & o % o o % o o & o % o o o o o & o % o o % o o & o % o o % o o & o ",
"r.+ p.. a.. r.+ r.+ p.. a.. r.+ r.+ p.. p.. r.+ r.+ p.+ p.. r.+ r.+ p.. a.. r.+ r.+ p.+ a.. r.+ r.+ p.+ a.. r.+ r.+ p.. p.. r.+ ",
"u.) t.u.t.t.i._ y.) t.u._ t.i._ u.) t.t.t.t.y._ y.) t.t.` t.i.) y.) t.y.t.` i.) y.) t.t.t.t.i._ y._ t.t.` t.i._ y.) t.y.t.t.i._ ",
"` u.` _ u.` _ u.` u.` _ y.` _ u.` u.` ` y.` _ u.` u.` ` u.` ` u.` u.` _ u.` ` u.` y.` _ u.` _ u._ u.` _ u.` _ u.` u.` _ u.` _ u."
};
