/* XPM */
static char *_dc35e070d574df48fee52ca2dcc756f[] = {
/* columns rows colors chars-per-pixel */
"53 99 164 2 ",
"   c None",
".  c #1F190F",
"X  c #1C160D",
"o  c #211A0E",
"O  c #2E1E0E",
"+  c #321F0E",
"@  c #241D11",
"#  c #2A1F11",
"$  c #33210F",
"%  c #3D240F",
"&  c #252116",
"*  c #2C2212",
"=  c #25251A",
"-  c #29271B",
";  c #2B2A1E",
":  c #332210",
">  c #3B2310",
",  c #342915",
"<  c #3B2B15",
"1  c #322A18",
"2  c #3B311B",
"3  c #262B22",
"4  c #2C2E22",
"5  c #27322B",
"6  c #3C3524",
"7  c #36382C",
"8  c #273730",
"9  c #283A33",
"0  c #2A3F38",
"q  c #353D32",
"w  c #45260F",
"e  c #48270F",
"r  c #4A280F",
"t  c #422610",
"y  c #422D14",
"u  c #4C2B10",
"i  c #453217",
"p  c #493417",
"a  c #41341B",
"s  c #4C3618",
"d  c #473A1E",
"f  c #553314",
"g  c #593615",
"h  c #573917",
"j  c #5B3815",
"k  c #533B19",
"l  c #5C3E19",
"z  c #623F18",
"x  c #613D17",
"c  c #4B3F21",
"v  c #2F443D",
"b  c #34433B",
"n  c #3D4A3C",
"m  c #5C401B",
"M  c #64431B",
"N  c #6B461B",
"B  c #6D4A1D",
"V  c #734E1E",
"C  c #76511F",
"Z  c #78521F",
"A  c #4C4022",
"S  c #554624",
"D  c #5D4E27",
"F  c #594D29",
"G  c #554C2D",
"H  c #404D3D",
"J  c #504D31",
"K  c #5B5535",
"L  c #674F26",
"P  c #6D5125",
"I  c #63552C",
"U  c #67582D",
"Y  c #68592E",
"T  c #765221",
"R  c #795421",
"E  c #7E5B25",
"W  c #6F5F30",
"Q  c #7E612C",
"!  c #746433",
"~  c #7E6E38",
"^  c #7E6D37",
"/  c #274642",
"(  c #294743",
")  c #2B4A46",
"_  c #2B4C48",
"`  c #344A42",
"'  c #3C4B42",
"]  c #334E49",
"[  c #395246",
"{  c #33524C",
"}  c #3D534B",
"|  c #355652",
" . c #375955",
".. c #385855",
"X. c #3D5E5A",
"o. c #3E615D",
"O. c #424D42",
"+. c #42564C",
"@. c #42594F",
"#. c #435D52",
"$. c #43635D",
"%. c #4A635C",
"&. c #596554",
"*. c #426561",
"=. c #446965",
"-. c #4D6A63",
";. c #496E6A",
":. c #4C716D",
">. c #52716B",
",. c #4E7672",
"<. c #4F7874",
"1. c #517571",
"2. c #517975",
"3. c #577C78",
"4. c #597D79",
"5. c #815F28",
"6. c #85642B",
"7. c #89692E",
"8. c #8B6C30",
"9. c #836F37",
"0. c #8E7032",
"q. c #807039",
"w. c #927435",
"e. c #947837",
"r. c #957A3A",
"t. c #997E3C",
"y. c #927F40",
"u. c #5B837E",
"i. c #9D833F",
"p. c #968341",
"a. c #9E8641",
"s. c #9E8A45",
"d. c #A08741",
"f. c #A48C44",
"g. c #A38E48",
"h. c #A69149",
"j. c #AB954A",
"k. c #AF994C",
"l. c #B19B4D",
"z. c #5E8A86",
"x. c #5C8783",
"c. c #618581",
"v. c #648A86",
"b. c #628E8B",
"n. c #64918D",
"m. c #659591",
"M. c #699692",
"N. c #6C9995",
"B. c #709D99",
"V. c #78A29F",
"C. c #7AA6A2",
"Z. c #7DA9A5",
"A. c #6FB4AC",
"S. c #88B3AF",
"D. c #8DB8B4",
"F. c #9CC6C3",
"G. c #9FC9C6",
"H. c #82DBD5",
"J. c #A0CAC7",
"K. c #A2CDCA",
"L. c #A6D1CE",
"P. c #93FFF7",
"I. c #96FFFC",
"U. c #98FFFF",
/* pixels */
"                                    & o # o # @ @ @ @ @ @ @ @ @ @ @ o                                     ",
"                                    o & o & o & @ @ @ @ o # @ @ @ @ &                                     ",
"                                    @ @ o . o . . o . . o . . o o . @                                     ",
"                                  , p s s D I I I I I I I I I D s s p ,                                   ",
"                            @ @ @ < Z Z Z f.l.j.k.k.k.k.k.k.k.f.Z Z Z i & o o                             ",
"                            @ @ . i Z Z Z d.j.j.j.j.j.j.j.j.k.d.Z Z Z < o & &                             ",
"                            @ * # < Z Z Z d.j.j.j.j.j.j.j.j.j.i.T T Z i o # #                             ",
"                      @ @ @ M B N 6.h.f.f.j.j.j.j.j.j.j.j.j.j.j.f.h.h.Q B B M & @ *                       ",
"                      @ @ @ B T V 7.j.j.j.j.j.j.j.h.j.j.j.j.j.j.j.j.j.7.C C B & o @                       ",
"                      @ @ @ N V V 7.j.j.j.j.j.j.j.j.j.j.j.j.j.j.j.j.k.6.V C M @ @ @                       ",
"                    < i i i Q 8.7.e.j.j.j.j.j.j.j.j.j.j.j.j.j.j.j.j.j.e.7.8.6.i i i <                     ",
"              @ @ @ i R Z T f.k.j.j.j.j.j.j.j.j.j.j.j.j.j.j.j.j.j.j.j.k.j.j.f.Z Z T i @ o &               ",
"              @ @ @ i Z C T f.j.j.j.j.j.j.j.j.j.j.j.j.j.j.j.j.j.j.j.j.j.j.j.f.C C Z i @ @ @               ",
"              # @ @ i Z C C f.j.j.j.j.j.j.j.j.j.j.j.j.j.j.j.h.j.j.j.j.j.j.j.f.Z C Z i @ @ @               ",
"        & o @ % w % g C C C f.j.j.j.h.j.j.j.j.j.j.j.j.j.7.E Z Q E E E E E E E C C C B B N M & o @         ",
"        @ @ @ w e w j C C C f.j.j.j.j.j.j.j.j.j.j.j.j.j.6.C Z C C V C C V C V C C C C C T B & o @         ",
"        @ @ @ w e e g C V T f.j.j.j.j.j.j.j.j.j.j.j.j.j.6.Z Z Z Z C C T Z C Z C Z Z C Z Z B * @ @         ",
"        @ @ @ e e w z 7.7.7.f.j.j.j.j.j.j.j.j.j.f.i.i.i.B m m m m m m l m m m m m m B Z C B @ @ @         ",
"        @ @ @ w r w T l.j.j.j.j.j.j.j.j.j.j.j.j.i.V V V , @ o @ @ @ @ @ @ @ @ @ @ . k Z C B & o @         ",
"        @ @ @ w t t P k.j.j.j.j.j.j.j.j.j.j.j.j.i.V Z Z < @ @ @ @ @ @ @ @ @ @ @ @ @ k Z C B # @ @         ",
"        @ @ @ t r w P j.j.j.j.j.j.j.j.j.j.j.j.j.i.Z Z Z < @ @ @ @ @ @ @ @ @ @ @ @ @ k Z Z N * @ @         ",
"@ @ @ : w % w N N N T 6.5.6.f.j.j.j.j.j.j.7.5.5.P , , , # @ @ @ @ @ @ @ @ @ @ @ @ @ : , , , @ @ @         ",
"@ @ @ : e e u V Z C C V V C f.j.j.j.j.j.j.5.V C m o @ @ @ @ @ @ @ @ @ @ @ @ @ @ @ @ @ @ @ @ @ @ @         ",
"@ @ @ : e r r B C C C C C Z f.j.j.j.j.j.k.5.T T M . o . @ @ @ @ @ @ @ o o o o @ @ @ @ @ @ @ @ @ @         ",
"@ @ @ : e e r B V C C C C T r.d.i.i.d.t.i.P M M S } +.+.4 o # @ @ @ o b +.+.n & @ * @ @ @ @ @ @ @         ",
"@ @ @ : e e u V C C C C C C Z V C C C C T , @ o #.I.I.I.@.o @ @ @ @ o A.I.I.H.& @ @ @ @ @ @ @ @ @         ",
"@ @ @ : e e u B C T C C C C C C C C C C C : @ o +.I.P.I.@.o @ @ @ @ o A.I.P.H.* @ @ @ @ @ @ @ @ @         ",
"@ @ @ > e w u V C Z C Z C Z C C C C T C T , @ o #.I.I.I.@.o @ @ @ @ o A.U.I.H.& @ @ @ @ @ @ @ @ @         ",
"@ @ @ $ r r r f f f f f f f B C Z M < < < @ @ @ 4 $.#.%.; o @ @ @ @ o n #.#.+.@ @ @ @ @ @ @ @ @ @         ",
"@ @ @ : r r e w w e w w r r B C T l . @ @ @ @ @ o o o o o # @ @ @ @ @ o o o o @ @ @ @ @ @ @ @ @ @         ",
"@ @ @ : r e e e e e e w r t V T R l @ @ @ @ @ @ o o # o # @ @ @ @ @ @ @ @ @ o @ @ @ @ # @ @ @ @ @         ",
"@ @ @ : w % w w e e w w t t z N N k @ @ @ @ @ @ o & o & @ @ @ @ @ @ @ @ # @ @ @ @ @ @ o & @ @ @ @         ",
"        @ @ @ w r e > @ @ @ @ @ @ @ @ @ @ @ @ @ @ @ @ @ @ @ @ o @ @ @ @ @ @ @ @ @ @ @ @ @ @               ",
"        @ @ @ w e e : @ @ @ @ @ @ @ @ @ @ @ @ @ @ @ @ @ @ @ @ & @ @ @ @ @ @ @ @ @ @ @ @ @ @               ",
"        @ @ # w e r > @ @ @ @ @ @ @ @ @ @ @ o @ @ @ * @ @ @ @ @ @ @ @ @ @ @ @ @ @ @ @ @ @ @               ",
"        @ @ @ * : : : > > > % % > > > > > > % % $ @ o o & @ @ @ @ @ @ @ @ @ * > > % * @ @ @               ",
"        @ @ @ @ @ . : u r e e e r e e e r e r r t o o & @ @ @ @ @ @ @ @ @ @ * e r r : @ @ @               ",
"        @ @ @ @ @ @ : w w e e e e e e e e e e e % & & o @ o @ @ @ @ @ @ @ @ # w r r : @ @ @               ",
"        @ @ @ # # # : e e e e e e e e e r r p r y * $ * - : , * * , * * * * : u u u > # # #               ",
"        @ @ @ w w w w e e r w e e e e e r N C C C C C Z V C V V C C C T C C T T C T g w w w @ @ @         ",
"        @ @ @ w e e e e e e e e e w e e e B Z C C C C C C C C C C C C C C C C C C C h e r w @ @ @         ",
"        @ . o w e e e e e e e e r r w e w N Z C C C C C C C C C C C C C C C C Z Z R j e r w @ @ @         ",
"@ @ o S ! ! W < : : $ $ : : : * : y z z z V C C C C C C C C C C C C C C C C B p i i < $ $ * @ @ @         ",
"@ @ @ I l.j.j.1 @ @ @ @ @ @ @ @ @ < R C C C C C C C C C C T C C C C C C C Z B o @ @ @ o @ @ @ @ @         ",
"@ @ . I k.j.g., o @ @ O @ @ @ @ @ < T T C T C C C C V C V V C V C C T C C C N # @ @ o & o & @ @ @         ",
"@ @ @ I k.j.j.2 - , - o @ @ @ @ @ < V B B B V B P B V B V V B P P P T B B B M & & & & * * * 1 , , -       ",
"@ @ . I k.j.j.g.f.j.! @ @ @ w w u > @ * * * * @ & # # # # # # - ) ` ) 4 * & - ) ) / G C V Z f.f.h.I o @ @ ",
"@ @ o I k.j.j.j.j.j.! o @ @ w e e > @ @ @ @ @ @ @ @ @ @ @ @ @ 3 ) ) _ 3 @ @ & ) ) ) G Z C E h.j.k.I o @ @ ",
"@ @ . I l.j.j.j.j.j.! X o o t r r > @ # @ @ @ @ @ @ o o @ @ @ # ( ( / 3 o @ & / ( ( G Z T E h.j.k.I @ @ @ ",
"@ @ @ S w.w.w.j.j.j.y.U U U t : : : : : : : > : > s s s 4 5 5 ` v.v.v.+.5 5 v v.v.v.&.J J K h.j.k.I . @ @ ",
"@ @ o p C C T f.j.k.k.j.k.j.2 @ @ $ r r r r r r f R R R H ) ) *.K.K.K.2./ ) o.G.K.L.4.( _ [ h.j.k.I . @ @ ",
"@ @ @ p T C R f.j.j.j.j.j.h.2 @ @ + r w w r w w f C C C H ) ) *.J.J.K.1./ ) X.F.G.K.4./ _ [ h.j.k.I o @ @ ",
"@ @ @ i C V T f.h.h.h.j.j.h.c @ * , t w w w w w f V C V n _ ) *.J.J.J.1.( ) X.F.G.K.4.( ) [ g.h.j.I @ * * ",
"@ @ @ > u u u C R T w.k.j.j.g.s.g.! @ # # @ # @ # # # # 0 ) ) *.F.J.K.1.( ) X.F.G.K.4.( _ ` T R R C B B B ",
"@ @ @ : r w r V C C 7.j.j.j.h.j.k.~ o @ @ @ @ @ @ @ @ @ 0 ) ) *.J.J.J.1.( ) X.F.G.K.4.( _ ` T T T C C C T ",
"@ @ @ : r r r V Z C w.k.j.j.k.j.k.~ . o @ @ @ @ @ @ @ @ 0 ) / o.J.J.K.1.( ) X.F.G.K.3./ ( ` T T T Z Z Z C ",
"@ @ @ $ > > > j z z R r.e.r.e.e.e.E i p p i p p y @ @ @ } =.*.3.F.J.K.1.( ) X.F.G.L.n.=.=.$.k k k l z z z ",
"@ @ @ @ @ @ @ t w w g C V V V V V Z T Z Z Z Z T M @ @ o >.m.b.B.F.J.J.1.( ) X.J.G.G.Z.z.b.x.@ @ @ $ e w e ",
"@ @ @ @ @ @ # t r r g C C C C C C C C C Z C C Z m @ @ @ >.m.b.N.J.J.J.1.( ) X.F.G.G.Z.z.b.u.@ @ @ + e e e ",
"@ @ @ @ @ @ # t w w g C C V T C C C C C C C C Z M @ @ @ ;.b.b.N.F.F.J.1.( ( X.F.F.G.C.z.z.x.= @ @ > e e e ",
"@ @ @ $ t t t # # # > u u u V C C C C C C C C Z m @ @ @ >.b.b.m.N.M.M.*.( ) | M.M.N.;.{ | ] @ @ @ : e e e ",
"@ @ @ , e e e # @ @ : e r r B C Z Z C C C C C Z M @ @ @ >.b.b.b.b.b.b.o.) ) | v.b.b.*.( ) ) @ @ @ : e e e ",
"@ @ @ : r e e @ @ @ $ e w r V T Z Z Z Z C Z C R M @ @ . >.n.b.m.m.b.m.X.) _ | b.n.m.*.) _ / @ @ @ > r r e ",
"@ @ @ $ > > > $ $ # > % > t x z M z M M M M M M g # : O +.-.-.-.,.<.<.] 8 8 v ,.<.<.} q q 7 @ @ @ $ > > > ",
"        @ @ @ t e r > @ @ @ w w w w e t w w w w w r e e + @ o @ / ) ) 3 o o = / / _ 6 e e w @ @ @ @ @ @ @ ",
"        @ @ # t e e > @ @ @ w w w e e e w r r r r r e r # @ @ 3 ) ) ) 3 @ # = ) ) ) 6 r e w # @ @ @ @ @ @ ",
"        @ @ @ t r e % @ @ @ w e e r e e r r r t w w w w # o @ = ) ) ) 4 @ @ = ) ) ) 6 e e w @ @ @ @ @ @ @ ",
"              # # # @ @ @ @ # # # # # # # # # # + # $ # # @ @ , I P L 9.t.y.~ - = - # O # *               ",
"              # @ @ @ @ @ @ @ @ # @ @ @ @ @ @ @ @ @ @ @ @ @ @ , C C V i.k.k.p.@ @ @ @ @ @ @               ",
"              @ @ o @ @ . @ @ @ @ @ . @ . @ @ . @ @ @ @ @ @ o , C C V r.j.j.p.@ . . @ @ @ @               ",
"              * * * : < < < < < < i c c c c c c c < < < < < < i C C V i.j.j.s.A A A 1 @ @ @               ",
"        @ @ # t u r g R C T Z Z V 7.k.j.k.k.j.k.a.V C T C C C T C C C r.k.j.j.j.k.k.F o @ @               ",
"        @ @ @ w w w g Z C C C T C 7.j.j.j.j.j.k.t.C C C C C C C C C C i.j.j.j.j.j.l.F . o &               ",
"        @ @ # w e w g Z C C C V V 6.j.j.j.j.j.j.t.C C C C C C C C C V r.j.j.j.j.j.k.F o @ @               ",
"        @ @ @ w r w g Z C Z r.i.i.d.j.j.j.j.j.j.a.V T C C C C C C C V i.j.j.j.j.j.k.F o @ @               ",
"        @ @ # w w r g Z Z T f.k.j.k.j.j.j.j.j.j.i.V C C C C C C C C V r.k.j.j.j.j.k.D o @ @               ",
"        @ @ @ w r w j T Z Z f.j.j.j.j.j.j.j.k.k.t.V C C C C C C C C C i.k.j.j.j.j.k.F . o o               ",
"      * # # * w e e f B N B r.d.d.f.j.j.j.d.i.d.e.C C C V N N B C C C 0.a.i.a.j.j.k.I : < ,               ",
"@ @ @ : e e e e e e w e e r V C C 6.j.j.j.5.C C C C C C f w e f C C C C Z Z E j.j.k.7.Z Z B * o @         ",
"@ @ @ : r e e e e e r e e r N C C 7.k.j.j.5.C C C C C C f w w f C C C C C C E j.j.k.7.C Z N & & @         ",
"@ @ @ > e e r w e e w e e e V Z C 7.j.j.k.5.C C C C V Z f r w f Z Z Z Z C V 5.j.j.j.8.C C B * o &         ",
"@ @ @ : e e e e e e r e e w f f f z 7.8.7.R C C N g g f u r r r f f f N C Z T 7.6.7.E Z C B & o o         ",
"@ @ @ $ e e e e w r e e e e w e w f C C C V C C N w w w r w w r w e w M Z C C V C V V Z C B & @ &         ",
"@ @ @ $ e e e e e e r w e e e w w g Z C C C C C N w r r r r r w e e e N Z C C Z C C C C C B # @ @         ",
"@ @ @ : e e e e e e w w w w % w w f B B V N N V z e e e e w r w w r w j B N N B N N B N N m * @ @         ",
"@ @ & : e e e e e e > @ # @ @ @ @ + r r r r r r r e e e e e r r r r r + & @ @ @ @ @ @ * @ &               ",
"@ @ o $ e e r e e e > @ o @ @ @ o # r w r w r w w r e e e e e e r w r * @ @ @ @ @ @ @ @ @ &               ",
"@ @ @ % r e e e e w % . o o o o o + r r r r r r r r e e e e e e r r r O . . o o o o o @ o o               ",
"      * $ $ : : + + 7 %.%.%.%.%.%.O.+ $ : # $ $ + + $ : $ : # $ : : + O.%.%.%.%.%.%.` 5 9 9 ) ) _         ",
"        @ @ @ @ @ o ' M.m.n.n.n.m.-.o @ @ @ @ @ @ @ @ @ @ @ @ @ @ @ o -.m.n.n.n.m.m.=.) ) ) ) ) )         ",
"        @ @ @ @ @ o ' n.b.b.b.b.m.-.o o @ @ @ @ @ @ @ @ @ @ @ @ @ @ o -.m.b.b.b.b.b.*.) ) ) ) ) )         ",
"        & & & ; ; ; +.N.M.M.M.M.M.>.; ; 4 = = @ # @ @ @ @ @ @ @ & & & -.n.b.n.m.M.M.>.| ....| | ....      ",
"        ) ) ) u.v.z.C.F.G.F.F.F.G.S.z.v.z.| ) ) )               ) ) / 1.n.b.M.F.F.F.F.F.F.F.F.F.G.c./ ) ) ",
"        ) ) _ x.b.b.C.G.G.G.G.G.K.S.z.b.b...) ) _               ) ) ( 2.n.b.N.F.K.F.K.F.J.J.F.F.K.c./ ) ) ",
"        ) ) _ z.n.b.Z.K.K.K.K.K.K.D.m.n.n...) ) _               ) _ _ 2.m.b.N.K.K.K.K.K.K.K.K.K.L.c./ ) ) ",
"        ) ) ) =.=.=.1.v.c.c.c.c.v.3.=.=.=.| ) ) )               ) ) ) X.=.=.;.c.c.c.c.c.c.c.c.c.v.*.) _ ) ",
"        _ ) ) ) ) / ) v / / / / / ) ) / ) ) ) ) _               ) _ ) ) ) ) v / / / / / / / / / / ) ) ) ) ",
"        ) _ ) _ ) ) ) ) ) ) ) ) ) ) ) ) ) ) ) ) )               ) ) ) ) ) _ ) ) ) ) ) ) ) ) ) ) _ ) ) ) ) ",
"        ) _ ) ) ) ) ) ) ) ) ) ) _ ) ) ) ) ) ) ) )               _ _ _ ) ) ) ) ) ) ) ) ) ) ) ) _ ) ) ) ) ) "
};
