/* XPM */
static char *_1021_1d6c837800328ee35a4379c5ce07690c7af4c9160a94d370c5fdfc3ad703ae23[] = {
/* columns rows colors chars-per-pixel */
"64 64 231 2 ",
"   c #010304",
".  c #0B0100",
"X  c #00040C",
"o  c #030A0D",
"O  c #0C080B",
"+  c #05070A",
"@  c #140100",
"#  c #1B0000",
"$  c #150A03",
"%  c #1C0A00",
"&  c #0A130C",
"*  c #010412",
"=  c #030914",
"-  c #030B1A",
";  c #151712",
":  c #220200",
">  c #290400",
",  c #210900",
"<  c #2B0B00",
"1  c #281200",
"2  c #221413",
"3  c #3A3428",
"4  c #502E13",
"5  c #4E351D",
"6  c #5C3D1B",
"7  c #57391C",
"8  c #5D3C09",
"9  c #6A3E06",
"0  c #663D0B",
"q  c #6B3E0B",
"w  c #673C07",
"e  c #6A3E11",
"r  c #633E19",
"t  c #643C15",
"y  c #593D22",
"u  c #713F26",
"i  c #5D4219",
"p  c #6D440C",
"a  c #684A0C",
"s  c #72440D",
"d  c #7A470D",
"f  c #74480E",
"g  c #7C490D",
"h  c #654314",
"j  c #6D4513",
"k  c #6C4914",
"l  c #65431C",
"z  c #6C451A",
"x  c #664A1C",
"c  c #6C491C",
"v  c #714413",
"b  c #7B4614",
"n  c #724914",
"m  c #7C4B14",
"M  c #72441A",
"N  c #744A1C",
"B  c #7B4D1B",
"V  c #7B501C",
"C  c #7F5316",
"Z  c #5D442C",
"A  c #5D4A2E",
"S  c #574226",
"D  c #5D4533",
"F  c #5B4935",
"G  c #574B3A",
"H  c #5C5238",
"J  c #644526",
"K  c #6C4523",
"L  c #654A24",
"P  c #6D4B24",
"I  c #64452A",
"U  c #684529",
"Y  c #644A2B",
"T  c #6C4D2B",
"R  c #744321",
"E  c #744C23",
"W  c #7A4D22",
"Q  c #744F2B",
"!  c #7A4D29",
"~  c #6C512C",
"^  c #6D5225",
"/  c #765025",
"(  c #7C5123",
")  c #73532D",
"_  c #7B562C",
"`  c #634B33",
"'  c #6B4D33",
"]  c #654E3A",
"[  c #6B4E3B",
"{  c #644631",
"}  c #724F3A",
"|  c #6C5234",
" . c #6C533C",
".. c #66543B",
"X. c #725334",
"o. c #72533C",
"O. c #775B3C",
"+. c #5A4C41",
"@. c #5F554C",
"#. c #5B5246",
"$. c #634D44",
"%. c #6B4F41",
"&. c #714F43",
"*. c #655343",
"=. c #6C5343",
"-. c #61544C",
";. c #6E594A",
":. c #6B5747",
">. c #735542",
",. c #795643",
"<. c #765B45",
"1. c #795A45",
"2. c #72564A",
"3. c #745B4C",
"4. c #795D4C",
"5. c #79574E",
"6. c #625451",
"7. c #6C5B52",
"8. c #6C5D59",
"9. c #6C5755",
"0. c #795F51",
"q. c #705D56",
"w. c #75624A",
"e. c #6B605B",
"r. c #766259",
"t. c #64757F",
"y. c #834D15",
"u. c #814E1B",
"i. c #825214",
"p. c #83521A",
"a. c #814B0D",
"s. c #825321",
"d. c #845729",
"f. c #9D882D",
"g. c #AB962D",
"h. c #A88F36",
"j. c #A88C44",
"k. c #AC904E",
"l. c #9D907F",
"z. c #9B8A7A",
"x. c #5D7A8E",
"c. c #5A7E98",
"v. c #647B92",
"b. c #547FA7",
"n. c #657FA0",
"m. c #5E839D",
"M. c #64869A",
"N. c #66899E",
"B. c #6B8496",
"V. c #718899",
"C. c #63858E",
"Z. c #4C83AD",
"A. c #4684AC",
"S. c #5C84A6",
"D. c #5285AC",
"F. c #5E86A9",
"G. c #548CAE",
"H. c #5C8AAD",
"J. c #5987A4",
"K. c #4583B3",
"L. c #4D86B4",
"P. c #4E8BB5",
"I. c #4A84BA",
"U. c #4D8BBC",
"Y. c #468AB9",
"T. c #5386B2",
"R. c #548CB6",
"E. c #598AB3",
"W. c #538CB9",
"Q. c #5C8EBB",
"!. c #5F86B1",
"~. c #5B90B5",
"^. c #5591BD",
"/. c #5A91BD",
"(. c #5090B6",
"). c #4F90B8",
"_. c #6886A4",
"`. c #6489A3",
"'. c #6B8AA2",
"]. c #638AAC",
"[. c #6A8DA8",
"{. c #6486A7",
"}. c #7190AD",
"|. c #648EB1",
" X c #638EB8",
".X c #6493B5",
"XX c #6C95B1",
"oX c #4D8CC0",
"OX c #4D8FC9",
"+X c #518EC3",
"@X c #5A8FC5",
"#X c #5391C1",
"$X c #5A94C2",
"%X c #5793CB",
"&X c #5799CD",
"*X c #6496C1",
"=X c #988A87",
"-X c #9C938C",
";X c #9D988D",
":X c #999184",
">X c #988E93",
",X c #959593",
"<X c #9C9593",
"1X c #9D9A96",
"2X c #9D9B9A",
"3X c #9B969A",
"4X c #A1938D",
"5X c #A3998E",
"6X c #AA9B8E",
"7X c #A59688",
"8X c #A29792",
"9X c #A39B94",
"0X c #AC9D95",
"qX c #A49C9B",
"wX c #AA9E9B",
"eX c #B19F91",
"rX c #A58F82",
"tX c #9DA19B",
"yX c #ABA296",
"uX c #A4A29D",
"iX c #ABA39D",
"pX c #AAA89C",
"aX c #B1A39C",
"sX c #B4AA9C",
"dX c #A59EA2",
"fX c #A89DA3",
"gX c #A5A3A2",
"hX c #ABA4A2",
"jX c #AAA6A5",
"kX c #B0A9A2",
"lX c #B4AAA8",
/* pixels */
"W.W.W.W.W.W.E.E.R.Q.L.L./.T.T.U.OXoXT.].`.N.x.V.M.N.J.XXm.m.V.B.'.C.V.B.V.m.~.G.$XU.@XE.b.@XI.%XW.W.W.W.W.W.W.W.W.W.W.W.W.W.W.W.",
"W.W.W.W.W.W.E.E.Q.Q.W.+XW.W.^.#XY.^.~.].V.X o   o X o   X o     + o     o o M.|.I.+XW.*Xb.T.&XK.W.W.W.W.R.W.W.W.W.R.(.W.W.W.W.W.",
"R.W.W.W.W.W.R.E.Z.W.^.#XU.W.W.R.(.A.G.m.  *.>.} I ` X.) Q / c ) Y | ~ ^ P  .  B.Q.+XZ.D. X XU.OXU.W.W.W.W.W.W.W.W.W.W.R.R.W.W.W.",
"W.R.W.U.W.W.R.E.W.W.U.U.U./.W.T.G..XM.X -.U K ! _ N B p.b p.( B N ( / / n ! D = m.~./.E.b. XK.U.U.W.W.W.W.W.W.R.W.W.W.W.W.W.W.W.",
"R.R.W.W.W.W.R.Q.#XW.U.oXoXW.T.D.H.N.  +.%.> # > > : : # # @ # # : # , @ > : 3.G o M.Z./. XD. XQ.W.W.W.W.W.W.W.W.R.W.W.W.W.W.W.U.",
"R.R.W.W.U.W.R.R.R.U.oX#XU.A.H.[.B.  :.O.# [ y ' I [ Z F *.G $.+.D *.y S ` I # ` H o `.Z.@XT.R.R.W.W.W.W.W.W.W.W.W.W.W.W.W.W.W.R.",
"R.R.W.).(.U.W.W.L.^.U.#XY.E.XXx..  .' > R c I D +.3 $ . @ . O   # ` F ..L i L , O.H   C.G.$XoXI.W.W.W.W.W.R.W.W.W.W.W.W.W.W.R.W.",
"R.W.U.W.W.W.R.R.T.^.P.R.L..Xx.$ ` P > r M P Y .   ; :XsX5XkX3XyX5X. @ @ Y L L l , | A & c./.U.%XW.W.W.W.W.W.W.W.W.W.W.W.W.W.W.(.",
"W.U.+XU.W.W.E.W.(.R.R.E.R.F.o #. .# x z P I @ uXtXhX<X0X6XyX<XqX5X9XyXeX# F i T L # Q ..X F.W.oXU.W.W.W.W.R.W.W.W.W.W.W.W.W.W.W.",
"(.W.W.W.W.W.W.W.(.R.R.E.E.`.  #.` @ x E 4 # iX<X2XhXyXyX5XiX9XqXiX9X9XaX4X@ o.6 I # ! '   N.E.U.W.W.W.W.W.W.W.W.R.W.(.R.W.W.W.W.",
"W.W.+XU.P.R.E.E.(.E.E.E.D.N.  ] | # P U < rX9XfXdXdXwXyXaX=XjXjXwXpX;X8XuXaX# I F @ B T   N.D.R.(.W.R.W.W.W.W.W.W.W.W.W.W.W.W.W.",
"W.W.W.U.P.R.R.R.(.G.E.E.E.N.  ' ' # U U @ 0XkX<XdXqXqX8X9X2 >X>XqX9X9XpX,XkX@ Z A @ V P   _.{.R.R.W.W.W.W.W.W.W.W.W.W.W.R.W.W.W.",
"W.W.W.W.P.(.R.Q.P.T.Q.W.T.N.  T ' # Z F @ yX;XgXtXtXuXyXsX  hXlXdXqXiXfX9XwX% G A @ V T X {.!.!.R.W.W.R.W.W.W.W.W.W.W.W.W.W.W.W.",
"W.W.W.W.(.G.E.W.(.R.W.Q.P.`.. ' X.@ H . 6X;XuXtXtXtX-X9XuX. qXqXqXiX<XqXfX<XwX. F @ B T * ].].R.Q.W.W.W.W.W.W.(.W.W.W.W.W.W.W.W.",
"R.R.W.W.P.R.W.Q.).).W.W.P.`.. ' Y @ Z @ yXuXqXqX8XiXqXwX<X. 9X1X<XyX1XqXdXgXhX. F # W ' X ].R.W.W.W.W.W.R.W.W.W.W.R.W.W.W.W.P.W.",
"E.R.W.W.R.R.W.W.).).U.W.P.`.. ' | @ F . 8XgXqXqXqX9XwX2XhX. qXqXyXyX1XqX2XfXqX. D # W ' X `.R.W.W.W.W.W.W.W.W.W.W.W.W.W.W.W.(.W.",
"R.R.W.Q.T.R.R.U.W.W.W.Q.L.`.  '  .# D @ 9XgXgXtXiX<XjXfXfX. qX9X9X9XwX9X3XdXqX. G # W T   {.E.U.W.W.W.W.W.W.W.W.W.W.W.W.W.W.W.W.",
"R.R.W.W.W.W.R.R.W.W.E.W.P.`.. ' ..@ ` @ iX,X,XgX8X9XjX>XfX>X$ 8XiXyX<XjXfXqXlX. F @ W T X _.E.R.W.W.R.W.W.R.W.R.W.W.W.W.W.W.W.W.",
"R.R.W.Q.W.W.(.R.W.W.R.R.P.J.. ' o.@ y , yXpXpX;X8XwXqXdXfXhX-X. 8X9XhXqX3XdXqX@ F @ W T   _.T.W.W.W.P.W.W.U.W.W.W.R.W.W.W.W.W.R.",
"R.W.W.W.W.(.P.W.W.Q.R.E.P.`.. ' ' : y # 7X:XpXuX0X8X8X<XwXwX0XwX. uXiXqXfXqXaX. F @ B T   _.E.U.W.W.W.W.W.R.W.W.W.W.(.W.W.W.W.W.",
"W.R.W.Q.W.(.R.R.W.W.Q.R.P.`.. ' | # P Y % -X0X9X8XaXhX8X9X9X-X9XiX2X2XjXiX4X@ F F # B T   `.E.W.W.W.W.W.W.W.W.W.W.W.R.W.W.W.W.W.",
"R.R.W.W.W.R.W.(.W.W.R.R.P.`.. ' ' # ) S . sX4XiXwXwX4XwXtX1XiXjX<XlX9X<X4XlX@ ` A # V P   `.R.W.W.W.W.W.W.R.W.W.W.W.W.W.W.R.U.W.",
"R.R.W.W.W.(.R.R.W.Q.R.R.P.`.  ' | @ i Y 1 l.sXwXqXiXuXgX2XuX2X2XdX<XjX9XeXz., y Y # V T   `.R.W.W.W.W.W.W.W.W.R.W.W.W.W.W.R.(.W.",
"R.W.W.W.W.W.R.).W.W.R.R.P.`.. '  .@ ^ i S @ 9XwXwXwXiX,XgX2X2XuXqXwX4X0XyX# Z L A # B ^   `.R.U.U.W.W.W.W.W.W.W.R.W.W.W.W.W.W.W.",
"R.R.W.W.W.R.R.R.W.W.W.R.P.`.  ' X.@ ^ i ~ S % 7X0X0XwX9XuX2XgXqX8X9XiX6X# I L J J # B P   `.E.U.U.W.W.R.W.W.W.W.W.W.W.W.W.W.W.W.",
"R.W.W.W.W.(.W.(.W.W.R.R.P.`.. ' | # x k h ~ 5 % @ % 7X-XjX1X1X0X6X% @ # | J / l J : W T   N.R.U.(.W.W.W.W.W.W.W.W.W.W.W.W.W.W.W.",
"W.W.W.E.W.R.P.W.W.W.E.R.P.`.. ' T # 8 n j j P I } y : @ . @ @ @ # 5 o.Z J P x l J # W T   N.(.W.W.W.W.W.R.W.W.W.W.W.R.W.W.W.W.W.",
"R.W.W.W.W.W.(.R.Q.W.Q.R.P.`.. T ) # k n w n l E r K U I D @ ..7 J ' I J h N e z U : W Q   N.G.R.W.W.W.W.W.W.W.W.W.W.W.(.W.W.R.W.",
"W.R.W.W.W.W.P.W.W.W.W.E.P.`.  ' P # z n s b n 0 v R K U I , T l P l K E N q k E U # ! '   N.E.W.W.W.W.W.(.W.W.W.W.W.W.W.W.W.R.W.",
"W.R.W.W.W.W.R.R.W.W.E.R.P.`.. ' X.: K M b 9 w V p B e r y # 6 c h j j M q n v h I : ! Q   N.G.W.W.W.W.W.R.W.W.W.W.W.R.W.W.W.W.W.",
"R.R.W.E.W.W.R.W.Q.W.W.R.P.`.  ' o.# U r v u.j w n w ( c I # P j f 9 v v b 9 s v U # ! T   M.G.W.W.W.R.W.W.W.W.W.W.W.W.W.R.W.W.U.",
"R.R.W.W.W.W.R.R.W.W.E.W.P.`.. ' ] # J K v q v n p N e c P # P j s s v m 9 m s e U # ! |   M.G.R.W.W.W.W.W.W.W.R.W.W.W.W.W.W.W.(.",
"R.R.W.W.W.R.U.R.W.W.R.R.P.`.. ' ] @ K h q d v v n v N e x # c v j n n s v v v z Y # W T X `.E.R.W.W.W.W.W.W.W.W.W.R.W.W.W.W.W.W.",
"W.R.W.Q.W.R.(.(.W.Q.E.R.P.`.  ' ' # z p s d v e j v M M x @ c v j j v j v v j z J # W T   `.E.E.W.W.W.W.W.R.W.W.W.W.W.W.W.W.W.R.",
"R.R.W.W.W.(.R.W.Q.W.R.R.P.`.. ' ' # k a s v b v M e N M L @ z j n v s v v j v j J # W T   _.G.W.W.W.R.W.W.W.W.W.W.W.W.W.W.W.W.W.",
"W.R.W.W.W.R.).R.Q.W.R.R.P.`.. ' ' # j p s b e M R z n z I # K M j j j v v v j z J # W ~ X `.E.R.W.W.W.W.W.W.W.W.W.W.W.P.R.W.W.W.",
"R.R.W.W.W.P.R.R.W.W.E.W.P.`.  ] [ # c j p f j M z j n z { # K c j v v j M v v z I # W T   _.E.R.W.R.W.W.W.W.W.W.W.W.W.W.W.W.W.W.",
"R.W.W.W.W.W.(.W.W.U.Q.R.R.J.. ' %.# K p p d e v v p n v { # K M n j v v v v v z J # W T   `.!.W.W.W.W.W.R.W.W.W.R.W.W.W.W.W.W.W.",
"W.R.E.Q.W.R.W.W.Q.W.R.R.P.`.. ] ] # z p s s q v v j n j L @ c z j j j v v v j z J # W T X `.E.R.W.W.W.W.W.W.W.P.W.W.(.W.W.W.R.U.",
"R.W.W.U.W.P.R.W.W.W.E.T.P.`.. ' ' # j p s f s v j j N j x @ c j j v v v v j n z I # W T   `.T.R.W.W.W.R.W.W.W.W.W.W.W.W.W.W.W.R.",
"R.W.E.W.W.U.W.W.W.W.W.R.L.`.. ' ] # M p j v v M z M n j L # c j j j v v v M j z J # W T   _.E.W.R.W.W.W.W.W.W.(.W.W.R.W.W.W.W.(.",
"R.R.+XE.W.R.R.R.U.Q.E.W.P.`.. [ [ # M v p v e M R e k c I : l W j n v j v v v z J # W T X `.E.R.U.W.W.W.W.W.W.W.W.W.W.W.W.W.W.W.",
"R.R.W.W.W.W.R.W.W.W.R.E.P.`.  ' ] # M s s f v u E j / r y # I r j j s j v M j j J # W T   _.!.W.R.W.W.W.W.W.W.W.R.W.W.W.W.W.W.W.",
"R.R.W.W.W.P.R.R.Q.W.E.R.P.`.. ' | # c e p f q b q k h P : : : K j j n v v v j z J # / T   _.T.R.W.W.R.W.W.W.W.W.W.W.W.W.W.W.W.W.",
"R.W.W.Q.W.P.W.(.W.W.W.R.L.`.. ' ' # M v p j s s s n P : f.g.j.> v j s j v v n z I # B T X `.E.R.W.(.W.W.W.W.W.R.W.W.W.W.R.W.W.W.",
"R.R.W.W.W.R.R.R.Q.W.W.R.P.`.  ' ' @ R u j k s v 9 q K # g.g.j.: j v v j v v j j J # / T   `.E.R.W.W.W.W.W.W.W.W.W.W.W.W.W.W.W.W.",
"R.W.W.W.W.W.(.W.W.Q.R.R.P.`.. ' ' @ M v j n e b u.j J # j.j.k.: j j n n M j v z J # W T X _.E.W.R.W.W.W.R.W.W.W.W.R.(.W.W.W.W.R.",
"W.W.W.W.R.R.R.W.W.E.R.G.R.`.  ' | # R h p b e u e M r E # , # h j k p j v v j z Y # W T   `.E.R.W.W.W.W.W.W.W.W.W.W.W.W.W.W.R.U.",
"W.W.W.W.W.E.W.W.@XT.E.H.T.`.  ' U < r r W M v M e v v v j j j j a a j j p p p j J , v T X {.E.U.W.R.R.W.R.W.R.R.R.Q.W.W.R.W.R.R.",
"W.W.W.W.E.E.W.W.+XW.E.E.E.`.  ' X.: Q K E e e N b v v v j j j j a a j z n p j z Y # B T   _.T.Q.W.W.W.W.W.W.W.W.W.W.W.W.W.W.W.W.",
"W.W.W.W.R.R.W.W.W.W.R.R.R.`.  T Q > 6 E t W M M M M v v M M M M v M M R M M M U { @ W X.X [.D.U.W.W.W.W.U.W.W.W.W.W.P.W.W.W.W.W.",
"R.R.R.R.R.W.W.I.W.R.W.P.P.J.  ' X.: P c _ r t E z z z c z z c z M M u u u c K U { # N O.  c.E.W.W.W.W.W.W.W.W.W.W.W.W.W.W.W.W.W.",
"R.R.W.E.W.Q.W.+XW.W.W.W.P.F.  ~ X.J < 7 T J X.6 J J J I J J I I I I I I Y P J U < 6 d.K + }.Q.R.W.W.W.W.R.W.W.W.W.W.W.W.W.U.W.W.",
"W.R.E.E.W.U.W.W.W.W.U.oXU.F.. ) ^ ) P % % # # : # # # @ # # # # # # @ # # @ # : l _ p.P X c.E.L.R.W.R.R.R.R.R.W.R.R.R.W.R.R.R.W.",
"W.W.E.E.W.W.+X+X@XW.W.oXU.].. E B p.V n M s.B / W W W W W W W W W W W W V N V N V m d ~ O n.Q.W.W.W.R.U.W.R.W.R.R.W.R.R.R.R.R.W.",
"W.W.E.E.W.oXW.W.W.W.U.+XP._.. E m d y.m p.y.m B B B B m B y.y.y.y.u.B B m C m m m g p.)   _.Q.T.W.R.R.R.R.R.R.R.R.R.R.W.R.W.R.R.",
"^.T.R.D.#XP.(.L.Z./.(.P.$XM.. E u.a.y.d u.b B b V b p.g y.g p.g y.d i.d C f p.m y.m p.L O _.Z.^.W.W.W.P.Q.P.Q.L.W.T.W.W./.P.W.T.",
"P.W.G./.K.^.L.E.~.G.Z.~.Z.N.  | B y.a.p.d y.b y.m V b p.d y.g a.a.y.g i.s m g y.p.d V <.  `.Q.W.P.W.T.$XK.W.I.R.I.Q.L.$XL.W.L.W.",
"W.W.T.T.#X#XR.R./.D.T.T.*X[.   .! y.y.d s.u.u.B p.m b n p.p.y.m u.m b f i.i.i.g g u.E Z = [.!.I.@XW.I.T.W.$XQ.U.W.Q.I.L.@X$XW.W.",
"E..X].`.H.H.b.].S.XX`.{.m.x.= *.T W Q P ! R K Q E Q / c W N N E E Q ) P / N n n B / T ;.+ v.|.].H.|.].S.].].S.].].|.].S.].S.S.H.",
"* * X - * - - X - X = = * O . @ @ . . @ . @ % @ @ . @ $ . @ % . # @ . @ . $ % @ # @ , @ . + o X X X X = X * = X * X X = X * = X ",
"6.@ 8.. e.. @.@ 6.$ 9.. 9.. 9.@ -.. e.. e.  @.. @.. 8.. 8.. @.@ -.# 8.. e.. 6.@ 9.@ 9.@ 8.. @.. -.@ 8.. e.. @.. -.@ 8.. 8.. -.. ",
"4.[ 2.3.:.;.4. .;.*.=.1.2.3.r.+.2...;.2.=.=.4. .2.[ ;.<.=.2.0.[ <.[ ;.2...:.w.%.5.5.$.4.=.4.3.=.3.%.;.3.=.2.0.=.4.$.2.4.=.2.0.=.",
"o.,.X.' <.o. .1.=.;.1.o.o.=.-.2...<.,.X.1.o.} ,.} ,.,.[ 4.>.&.,.} O.,...w. ...<.&.5.&.5.>.[ 5.>.o.1.o.[ 1.,.[ <.o.1.o.[ 1.,.[ 1."
};
