/* XPM */
static char *_9989_6673c84321dcea18fdd3e86d44433df98a481334c8f79b7d45c16514d2082179[] = {
/* columns rows colors chars-per-pixel */
"64 64 197 2 ",
"   c #030201",
".  c #0A0101",
"X  c #010B00",
"o  c #04010A",
"O  c #0B020A",
"+  c #030C0A",
"@  c #130202",
"#  c #190400",
"$  c #120008",
"%  c #18000B",
"&  c #001400",
"*  c #001B00",
"=  c #1E1400",
"-  c #020113",
";  c #000D14",
":  c #261900",
">  c #0E3E0A",
",  c #153B0D",
"<  c #3E3C3C",
"1  c #403F3D",
"2  c #094600",
"3  c #024D01",
"4  c #0A4C03",
"5  c #0C4F08",
"6  c #044600",
"7  c #124C02",
"8  c #1C4C07",
"9  c #164E0B",
"0  c #164B0D",
"q  c #035502",
"w  c #0C5304",
"e  c #065803",
"r  c #0A5B03",
"t  c #05550A",
"y  c #0C530C",
"u  c #025A0C",
"i  c #0A5B0B",
"p  c #145402",
"a  c #115B01",
"s  c #12530B",
"d  c #1A540D",
"f  c #135A0B",
"g  c #094716",
"h  c #004F11",
"j  c #0C4A18",
"k  c #174B19",
"l  c #065110",
"z  c #0C5E13",
"x  c #005F18",
"c  c #0C591D",
"v  c #065711",
"b  c #145512",
"n  c #1A5213",
"m  c #125B12",
"M  c #12561C",
"N  c #185A16",
"B  c #2D5D00",
"V  c #265416",
"C  c #026101",
"Z  c #0D6204",
"A  c #0F6C00",
"S  c #03620C",
"D  c #0C610A",
"F  c #176907",
"G  c #1F6900",
"H  c #13650A",
"J  c #006010",
"K  c #00611C",
"L  c #1D5322",
"P  c #594F14",
"I  c #5F4E18",
"U  c #5B5115",
"Y  c #5C5519",
"T  c #6A4D0B",
"R  c #654804",
"E  c #704C0E",
"W  c #6E5306",
"Q  c #66510F",
"!  c #6D530D",
"~  c #6E590E",
"^  c #735A0D",
"/  c #71570C",
"(  c #654D15",
")  c #6B4D14",
"_  c #6A4E19",
"`  c #634B1B",
"'  c #665315",
"]  c #6C5514",
"[  c #6B5A13",
"{  c #63551B",
"}  c #6C551A",
"|  c #655A1C",
" . c #6C591B",
".. c #725513",
"X. c #785211",
"o. c #715A14",
"O. c #73531A",
"+. c #735A1A",
"@. c #795C1B",
"#. c #795A17",
"$. c #76611E",
"%. c #5C4D23",
"&. c #5B4C2D",
"*. c #555124",
"=. c #42413E",
"-. c #5F4F35",
";. c #634E24",
":. c #645424",
">. c #6B5422",
",. c #645B23",
"<. c #6D5922",
"1. c #63522C",
"2. c #6B552D",
"3. c #6D5A2D",
"4. c #735622",
"5. c #745A22",
"6. c #73532C",
"7. c #725B29",
"8. c #7B5725",
"9. c #624B3B",
"0. c #6D4F3B",
"q. c #6D4F37",
"w. c #744D3C",
"e. c #704E35",
"r. c #635435",
"t. c #645B32",
"y. c #66543A",
"u. c #6D523B",
"i. c #6C5A35",
"p. c #715233",
"a. c #785831",
"s. c #73523C",
"d. c #77593B",
"f. c #7B5C3D",
"g. c #78563D",
"h. c #676125",
"j. c #6A6025",
"k. c #6E622E",
"l. c #756124",
"z. c #7F6020",
"x. c #7B602B",
"c. c #443E44",
"v. c #483C4A",
"b. c #454442",
"n. c #484746",
"m. c #494846",
"M. c #4C444C",
"N. c #4B4A48",
"B. c #434248",
"V. c #5B5246",
"C. c #5D5449",
"Z. c #634E4B",
"A. c #764D46",
"S. c #645041",
"D. c #6C5343",
"F. c #65514E",
"G. c #67594E",
"H. c #6C594B",
"J. c #6D5845",
"K. c #735643",
"L. c #7B5443",
"P. c #775A44",
"I. c #7A5A45",
"U. c #735B4B",
"Y. c #7A5E4C",
"T. c #665C52",
"R. c #6D5A5A",
"E. c #6D5D55",
"W. c #765654",
"Q. c #7E5050",
"!. c #725D5C",
"~. c #68604D",
"^. c #6C6156",
"/. c #6E615B",
"(. c #776050",
"). c #805A35",
"_. c #825B44",
"`. c #52AF00",
"'. c #12C633",
"]. c #7BC234",
"[. c #2CA641",
"{. c #8DB62A",
"}. c #8EC90F",
"|. c #A2CD00",
" X c #97D126",
".X c #9FA798",
"XX c #A6A69E",
"oX c #AEA7AF",
"OX c #A3AEAB",
"+X c #A7AAAA",
"@X c #B2ACAC",
"#X c #BCB2A9",
"$X c #ADAFB1",
"%X c #BBABB5",
"&X c #FAF9F7",
"*X c #FEF6FD",
"=X c #FEFEFC",
/* pixels */
"e e e e e e e e e e e e e e e e e e e e e e e e e e e e e e e e e e e e e e e e e e e e e e e e e e e e e e e e e e e e e e e e ",
"e e e e e e e e e e e e e e e e e e e e e e e e e e e e e e e e e e e e e e e e e e e e e e e e e e e e e e e e e e e e e e w i ",
"e e e e e e e e e w e e e e e e e e e e e e w e e e e e e e e e e e e e e e e e e e e e e e e e e e e e e w e e e e e e e e e e ",
"e e e e e e e e e e e e e e e e e e e e e e e e e e e e e e e e e e e e e e e e e e e e e e e e e e e e e e e e e e e e e e e e ",
"e e e e e e e e e e e e e e e e e e e e e e e e e e e e e e e e e e e e e w e e e e e e e e e e w e e e e e e e e e e e e e e e ",
"e e e e e e e e e e e e e e e e e e e e e e e e e e e w e e e e e e e e e e e e e y e e e e e e e e e e e e e e e e e e e e e e ",
"e e e e e e e e e e e e e e e e e e e e e e e e e e e i e e e e e e e e e e e e e e e e e e e e e e e e e e e e e e e e e e e e ",
"e e e e e e e e e y e e w e e e e e e w e e e e e e e e e e e e e e e e e e e e e e e e e e w e e e e e e e e e e e e e e e e e ",
"e e e w e e e e e e e e e e e e e e e e e e e e e e e e w e e e e e e e e e e e e e e e e e e e e e e e e e e y e e e e e e e e ",
"e e e e e e e e e e e e e e e e e e e e e e e e e e e e e e e e e e e e e e e e e e e e e e e e e e e e e e e e e e e e e e e e ",
"e e e e e e e e e e e e e e e e e e e e e e e e e e e e e e e e e e e e e e e e e e e e e e e e e e e e e e e e e e e e e e e e ",
"e e e e e e e e e e e e e e e e e e e e e e e e e e e e e e e e e e e w e e e e e e e e e e e e e e e e e e e e e e e e e e e e ",
"e e e e e e e e e e e e e e e e e e e e e e e e e e e e e e e e e e e e e e e e e e e e e e e e e e e e w e e e e e e e e e e e ",
"e e e e e e e e e e e e e e e e e e e y e e e e e e e e e e e e e e e e e e e e e e e e e e e e e e e e e e e e e e e e e w e e ",
"e e e e e e e e e e e e e e e e e e e e e e e e e e e e e e e e e e e y e e e e e e e e e e e e e e e e e e e e e e e e e e e e ",
"e y e e e e e e e w e e e e e e e e e e e e w e e e e e e e e e e e e e e e e e e e w e e e e e e e e e e e e e e e e e e e e e ",
"e e e e e e e e e e e e e e e e e e e e e e e e e e e e e e e e e e e e e e e e e e e e e e e e e e e e e e e e e w e e e i w e ",
"e e e e e e e e e e e e e e e e e e e e e e e e e e e e e e e e e e e e e e e e e e e e e w e e e e e e e e e e e e e e e e e e ",
"e e e e e e e e e e e e e i w e e e e e e e e e e e e e e e e e e e e e e e e e e e e e e e e e e e e e e e e e e e e e e e e e ",
"e e e e e e e e e e e e e e e e e e e e e e e e e e e e e e e e e e e e e e e e e e e e e e e e e e e e e e e e e e e e e e e e ",
"e e e e e e e e e e e e e e e e e e e e e e e e e e e e e e e e e e e e e e e e e e e e e e e e e e e e e e e e e e e e e e e e ",
"e e e w e e e e e e e e e e e e e e e e e e e e e e e e e e e e e e e e e e e e e e e e e e e e e e e e e e e e e e e e e e e e ",
"e e e e e e e e e e w e e e e e e w e e e e e e e e e e e e e e e e e e e e e e e e e e e e e e e e e e e e e e e e e e e e e e ",
"e e e e e e e e e e e e e e e e e e e e e e e e e e e e e e e e e e e e e e e w e e e e e e e e e e w e e e e e e e e e e e e e ",
"e e e e y e e e e e e e e e e e e e e e e e e e C q q w q r C e e e r i e 3 q C y e e w r q w S e e e e e e e e e e e e e e e e ",
"e e e e e e e e e e e e e e e e e e e e e e e e a w n n * 0 4 f q N 9 & n d a w q e r i e a S t e e e e e e e e e e e e e e e e ",
"e e e e e e e e e e e e e e e e e e e e y e e e Z q q 4 5 * N y s s * y i e e r q D q u y e v y e e e e e e e e e e e e e e e e ",
"e e e e e e e e e e e e e e e e e e e e e e e e q H q i z y & n n * b y q q q e e y q u m q t m e e e e e e e e e e e e e e e e ",
"e e e e e e e e e e e e e e e e e e e e e e e e i 3 t t l M k & & L j t c q z i i 3 S w q e B 3 e e e e e y w e e e e e e e e e ",
"e e e w e e e e e e e e e e e e e e e e e e e e   X X X X   .         X X X X   t F q f q F {.G e e e e e e e e e e e e e e e e ",
"e e e e e e e e e e e e e e e w e e e e e e e e O =X1 =Xb.&XM.*Xv.*Xb.=Xb.=X< o w q i r q ]. X}.e e e e e e e e e e e e e e e e ",
"e e e e e e e e e e e e e e e e e e e e w e e e o c.=Xb.=Xb.=XB.=XN.=X=.=XM.=Xo w D w e r  X`.|.e e e e e e e e e e e e e e w e ",
"e e e e e e e e e e e e e e e e e e e e e e e e   =X=.=Xb.=Xm.&XN.=Xb.=X=.=X=.  y t q C C e '.C C q e e e e r e e e e e e e e e ",
"e e e e e e e e e e e e e e e e e e e e e e e e   =.=Xb.&Xn.&Xn.&XN.&Xb.=Xb.=X  q D e e q p [.a q q e Z w q e e e e e e e w e e ",
"e e e e e e e e e e e e e e e e e e e e e e e e   &XN.=X=.=Xb.&Xb.=Xb.=Xn.&Xb.  a r q Z q & & X e e C e e w e C e e e e e e e e ",
"e e e e y e e e e e e e e e e e e e e e e e e e   b.=Xb.=Xm.=Xb.=X< =X1 =Xb.&X  3 Z e q c   @X  b D e e r e e e e e e e e e e e ",
"e e e e e e e e e e e e e e e e e e e e e e e e   &Xb.=X=.=X< =Xb.=Xb.=Xb.=Xn.  i q q S g   %X  > s q e Z t e C e e e e e e e e ",
"e e e e e e e e e e e e e e e e e e e e e e e e   b.&Xn.=X=.=Xb.&Xb.=X=.=XN.&X  v C e q & OX$X$X* 5 e C i e e e e e e e e e e e ",
"e e e e e e e e e e e e e e e e e e e e e e e e   =Xb.=X=.=XN.&Xn.&Xn.=Xb.=X=.  e e e y   OX$XXXX 0 e e e 5 e e e e e e e e e e ",
"e e e e e e e e e e e e e e e e e e e e e e e e   < =Xb.=Xb.=Xn.&Xn.=Xb.=X1 =X  q Z C 5 # $X+X#XX k r e e y i q e e e e e e e e ",
"e e e e e e e w i C C e c e Z q e C e C C e C C   =XM.=XB.=XB.=Xn.=Xb.=X1 =Xc.  q D 4 k X .X@X%X* h i c q e r e w e e e e e e e ",
"e e e e e e e e e e e Z j 7 0 y y w w w e w w e   .                             H 3 b n , *     , n s j Z e w l e e e e e e e e ",
"e e e e e e e e b r q 4   &   X                 X   .   .   .   .   . .         X   X   + o - o   X & X w e r Z e e e e e e e e ",
"e e e e e e e e 4 e t d X %.2.1.} } }  .} } } } Y h.Y { Y 3.' <.<.<.Y | | h.h.Y ^ $.!  .'  . . .>.,.*.X p y e q e e e e e e e e ",
"e e e e e e e e i S e p   >.4. . .} } } }  .} } ] ] 5.] ..] O.] ..) @.] ] ] ' @.O.) ..} ] '  .} X.+.7.  7 e r e e e e e e e e e ",
"e e e e e e e e e e e r X  .o.~ ] ] } } } ] ] } ..o.T #.....@.[ O.+.Q ! @.! ..! } 5.8.' +.+...] E O.6.  p e C e e e e e e e e e ",
"e w e e e e e e r q e w   <.} ] ..O...O.O...O.O.+.) x.` ;.# r.-.y.&.# k.` } O.O.} O.' O.O.O.T O.^ ~ }   w u q t e e e e e e e e ",
"e e e e e e e e p e S w   2.4.' }  .[ } |  . .[ ~ o.( k.t.  .       . -.,.}  .^  .[ ] [  .] ..[ |  .;.  y J C i e w e e e e e e ",
"e e e e e e e e y r q w   } o.O.O.O.O.O...O.O.O.O._ 4._ 4.4.4.O.+.4.O.6._ } _ +...O.O...O.O.O...#.^ O.  w q r t e e e e e e e e ",
"e e e e e e e e t D e p   >.} O.[ [ ] ~ [ ' [ [ ' o.@.] ] ] ] ] ' [ ] ] ] @.} ] [ [ ] [ [ [ ] [ >.] >.  a e Z u e e e e e e e e ",
"e e e e e e e e e e q f + :.' 2.| | | | | | | | } }  .<. . . .} } }  . .<.5.} } { | | | { | | | 3.| ;.o f q e e e e e e e e e e ",
"e e e e e e e e i e q r   : . . .   . .   . .   . .   .   .   . .   .   .     . .   . .   . .   . . :   w q e r e e e e e e e e ",
"e e e e e e e e r e q a + %.Y t.} } ' ' } } } }  .] +.} ]  .' ] ] '  .] } +.' +.} ' } } } } ' } t.Y %.+ w q e e e e e e e e e e ",
"e e y e e e e e q e q w   :.| >.<. .<.<.>.<. .<.} _ } ) 4.+.4.) _ 4.+.4._ } _ _ <.<.} <.<. .<.<.:.[ :.  w e e q e e e e e e e e ",
"e e e e e e e e i Z e w   >.o.+...../ ../ ..../ ..@./ O.8.R z.o.#.$.R 8.O./ @.O./ ....../ ......5.o.}   w q Z S e e e e e e e e ",
"e e e e e e e e r q q p . ' W O.} } } } } } } } Y 3.Y ,.U = U ,.<.U = U | Y j.{ } } } } } }  .} O.W } . a q q r e e e e e e e e ",
"e e e q r e e e w C x 4 X } ) [ O.O.+.} +...O...+.} 7.%.r.@     .   . r.;.7.+.} O...+.] @.} O... ._  .  y u C w w w e e r e w e ",
"e i q D q i q r e q K M X <.8...' } ' +.' } '  .W / ! $.<. .:.,.:.k.{ l. .^ R / '  .' <.' } '  .} 8.<.X y J e w q i q D q i e e ",
"e e q q C Z e q e C u 2 X } O...+.+.} ' 4.+.} } o.+.o.O.[ [  .]  . .} [ ] ] @...+.4.} ) +.+.O.] O.4.] X s x C e C e q q Z C q e ",
"r r Z w r q e e p w w V X U  .' ] ] +.Q +.Q  .] {  .{ |  . .}  .] [  .' <.' | | ] [ o.' +.Q } } } }  .& 8 6 w 7 e r Z e r q r e ",
"+           O   +   + - o . @ . O O   O   O $   O O . O . % $ . % $ . O . O O . O   O O   O $ . . . . - + ; X   o     .     O   ",
"F.# R.. !.. Z.# F.. G.O R.  V.. C.. T.. E.  C.. C.@ ^.. ^.. F.# F.# E.. T.@ C.. C.. G.. E.  C.. C.. G.O R.. V.@ F.# R.. !.. Z.# ",
"P.0.K.K.J.K.I.u.P.s.e.W.u.J.i.H.Y.0.L.U.K.U.Y.K.U.9.U.U.D.U.(.9.J.S.U.D.U.P.U.9.Y.0.P.U.K.U.Y.D.U.y.2.W.w.L.f.D.Y.q.K.K.u.K.Y.0.",
"u.I.g.w.I.g.s.I.u.d.)._.s.w.f.A.0.K.K.0.P.s.u.L.s.L.f.s.p.d.p.f.d.p.d.f.e.I.L.L.0.K.A.0.P.s.u.I.p._.d.A.).A.p.U.0.P.K.s.I.K.s.P."
};
