/* XPM */
static char *_816_13f1fb8a1569d1c7da8288ff1c2546f3089d7316ed64b4f5a6bb8cef38fd9a72[] = {
/* columns rows colors chars-per-pixel */
"42 64 242 2 ",
"   c #38342B",
".  c #3C3736",
"X  c #312B2B",
"o  c #1F2211",
"O  c #433C3C",
"+  c #423C33",
"@  c #443F2A",
"#  c #3B4033",
"$  c #47442B",
"%  c #4A4534",
"&  c #45443C",
"*  c #4A443B",
"=  c #4C4B3B",
"-  c #494834",
";  c #514C3B",
":  c #4C5337",
">  c #535535",
",  c #53543C",
"<  c #595A39",
"1  c #4E502C",
"2  c #615D38",
"3  c #5B623A",
"4  c #656739",
"5  c #767A3A",
"6  c #6C6C34",
"7  c #393D40",
"8  c #463D47",
"9  c #454342",
"0  c #4A4444",
"q  c #4D4B43",
"w  c #4A454C",
"e  c #494948",
"r  c #524B47",
"t  c #4E534B",
"y  c #555344",
"u  c #5C5C45",
"i  c #5E5C4B",
"p  c #575648",
"a  c #544C53",
"s  c #555352",
"d  c #5C5A55",
"f  c #4D4751",
"g  c #615D4B",
"h  c #635D56",
"j  c #5E6243",
"k  c #5D6249",
"l  c #5D6154",
"z  c #636444",
"x  c #6C6C44",
"c  c #64654B",
"v  c #6A664A",
"b  c #6A6C4D",
"n  c #656A47",
"m  c #716C48",
"M  c #6C7347",
"N  c #71724C",
"B  c #767A49",
"V  c #646353",
"C  c #666A53",
"Z  c #6B6C54",
"A  c #6B6C5B",
"S  c #68655A",
"D  c #716C57",
"F  c #6E725B",
"G  c #6D7355",
"H  c #737554",
"J  c #757A54",
"K  c #7B7D54",
"L  c #74745C",
"P  c #757A5C",
"I  c #7B7B5C",
"U  c #7A7557",
"Y  c #5A5B63",
"T  c #686967",
"R  c #747563",
"E  c #7B7B63",
"W  c #7C7D6B",
"Q  c #777766",
"!  c #767874",
"~  c #706F68",
"^  c #817C44",
"/  c #827D58",
"(  c #827E68",
")  c #827D75",
"_  c #7C8354",
"`  c #7D825C",
"'  c #7F8851",
"]  c #7D844C",
"[  c #7E8262",
"{  c #7E816A",
"}  c #7E8376",
"|  c #86873C",
" . c #868749",
".. c #82845C",
"X. c #878957",
"o. c #8E925B",
"O. c #979759",
"+. c #908F4B",
"@. c #A39E59",
"#. c #9BA356",
"$. c #A5A75B",
"%. c #ACB059",
"&. c #838363",
"*. c #848A62",
"=. c #8B8C63",
"-. c #83836B",
";. c #8C8D6B",
":. c #888769",
">. c #8D936B",
",. c #8C9364",
"<. c #949464",
"1. c #93946B",
"2. c #999B6A",
"3. c #848474",
"4. c #898573",
"5. c #8C8B74",
"6. c #8C8C7B",
"7. c #87887A",
"8. c #918E79",
"9. c #8C9173",
"0. c #8E9379",
"q. c #939473",
"w. c #959A74",
"e. c #9B9C75",
"r. c #94947C",
"t. c #9A9A7A",
"y. c #928C6D",
"u. c #A39E78",
"i. c #A29F65",
"p. c #9EA26C",
"a. c #9CA275",
"s. c #96A17D",
"d. c #A7A767",
"f. c #B3AC6A",
"g. c #B8B76B",
"h. c #A3A47C",
"j. c #A7AA78",
"k. c #B4AD72",
"l. c #AEB17F",
"z. c #B7B878",
"x. c #ADB063",
"c. c #C2BC7A",
"v. c #C0BF6F",
"b. c #BCC27C",
"n. c #C5C479",
"m. c #CECD74",
"M. c #7C7988",
"N. c #8A8B85",
"B. c #928D83",
"V. c #988E84",
"C. c #8D9185",
"Z. c #959483",
"A. c #9B9C84",
"S. c #9C9B8B",
"D. c #979688",
"F. c #9C9B92",
"G. c #989795",
"H. c #848D92",
"J. c #A19C89",
"K. c #A49C98",
"L. c #9EA284",
"P. c #9CA18D",
"I. c #9CA297",
"U. c #A2A383",
"Y. c #ABAC84",
"T. c #A3A58B",
"R. c #ACAD8B",
"E. c #A7A887",
"W. c #ADB48A",
"Q. c #B3B38C",
"!. c #BCBD8C",
"~. c #B5B888",
"^. c #A3A495",
"/. c #ABAC93",
"(. c #ABAB9B",
"). c #A7A699",
"_. c #B1AD99",
"`. c #AEB396",
"'. c #B3B49C",
"]. c #B6B898",
"[. c #B2AD86",
"{. c #A99AA4",
"}. c #ABA9A5",
"|. c #B3ACA8",
" X c #AEB1A7",
".X c #B4B3A3",
"XX c #BDBBA4",
"oX c #B4B3AA",
"OX c #B9B8A8",
"+X c #BEBCB3",
"@X c #B9B8B7",
"#X c #AFB7BA",
"$X c #C2BE8C",
"%X c #C1BDAB",
"&X c #C2BDB7",
"*X c #BDC39B",
"=X c #BAC287",
"-X c #BDC2A6",
";X c #BDC1B8",
":X c #C8C887",
">X c #D6D487",
",X c #C6C798",
"<X c #D6D896",
"1X c #CED090",
"2X c #C1C3A4",
"3X c #C7C9AA",
"4X c #CCD1AA",
"5X c #D5D7A9",
"6X c #C3C2B2",
"7X c #CBCCBA",
"8X c #C7C7B7",
"9X c #D1CDB9",
"0X c #D6D8B9",
"qX c #D1CEAB",
"wX c #DCE2B6",
"eX c #E4E5B7",
"rX c #ECECB1",
"tX c #E1DFA4",
"yX c #C3BDC2",
"uX c #CBCBC3",
"iX c #CECCC9",
"pX c #C6C4C4",
"aX c #D1CEC8",
"sX c #D3D3CC",
"dX c #D8D8C6",
"fX c #DBDBD4",
"gX c #D8D5D6",
"hX c #CECECD",
"jX c #E3DCD8",
"kX c #E1DDC6",
"lX c #DCE2C7",
"zX c #DDE1D7",
"xX c #E8E5C8",
"cX c #E6E7DA",
"vX c #F5F5D0",
"bX c #CBD2E0",
"nX c #ECEBEA",
"mX c #E7E8E3",
"MX c #F6F5EA",
"NX c #FCFDFD",
"BX c #F7F7F7",
"VX c #F1EDF1",
/* pixels */
"U.cXcX(.Z.>.>.9.9.t.0.7.Z.(.V.G.{.{.|.&XK.) ).|.8.J.7.E [ Z Q V j C A S l V R l q t ",
"O.5X*X'.P.0.P.P.9.P.P.S.Z.S.K.K.{.{.K.&X|.%X%X&XZ.( D.6.Z F R l A C u L R , , F < > ",
"W.wX0X-X'.W.w.w.L.D.0.(.).S.K.|.{.K.{.&X%X%X&X&XA.4.B.) L W R K.c c ` _ _ 1.b P G C ",
"4X4X-X-X*X`.w.4X`.7.} #XoXK.|.|.&X&X&XmX&X&X).).D.7.r.Z.( E A ~ k R z ' p.2.>.>.G l ",
"<XrX~.R.} ;XiX@XT.Z.).OX|.%X&X&X&X&XiXaXgX&XoXG.S.D.S.B.( -.R 6.5.[ a.*X~.p.p.G ' [ ",
"3X5XY.n C.C.C.P.S.V.oX|.OX&XuXhXuXiXpXiXaXuX&X}.F.6.7.4.XX0Xt.K.9.[ W._ M ,._ _ L.L.",
"XXr.-XP [ C.'.R.(.(.|.oX8X%XuXjXgXmXVXhXgXyXhXyX).N.OX.XE.].].$XE b *.[ n G { *.{ R ",
",.j.~.*X(.} 7.;X-XdX8XOX8X&XuXaXhXnXnXgXgXyXyX@X}.).aXkXqXR.h.y.>.` I P Z F u C j k ",
",.o.X.,X,Xe./.V.%X}.%XaXaXaXuXjXmXVXBXnXgXhXyXiXgXkXJ.%X_.u.( ( t.[ c k c j j P _ B ",
"_ ` *.>.4XR.8.B.'..X6XaX8XmXfXgXBXNXNXNXmXiXyXjX|.gX|.8.) Q / Q H -.7.7.Z ;.9.z [ [ ",
"_ [ ` K ~.4XT.fXcX|.oX).uXfXnXnXBXNXBXNXBXVXjXyX&XV.%X) ) r.) i Z.}.C.(.-.&.H v G [ ",
"_ j H [ ..-X3XmX9XdX6X|.|.gXnXVXNXNXBXNXnXgXyX%X%X{.V.) ) 8.7.3.C.Q } F.< :.,X..M M ",
">.0.[ b ;.1.`.6X'.9X6X8XVXiXVXNXnXBXNXBXVXfX&X).%XjXJ.) / S 5.Q Q D.W P N X.p.B _ n ",
"n _ s.L.=...].-.U.%XA.3XcXjXcXnXsXmXmXgXVXBXdX.XV.J.J.y.:.-.r.E { r.F W.B a.X.X.[ J ",
"_ ` >.w.,.a.5XxXQ.R.].dXMXuXuXcXcXgXgXpXcXjX;X9XS.4.J./ ;.-.c 3.G { { -Xn ~.W.>.w.>.",
"a.*.a...*Xe.Y.0X[.Q.].2XXXfX8XoXjXuXuX|.cXcX/.^.uX^.V.Q.;.( E i k F S.q.>.w.].A.o.,.",
"L.,.[ ' ,.b.j._ d.2./.].%X2X3X^.XXcXsXiXVXBXaX_.R.OXr.) ) <.,.N.S.i E n N =.*.n b C ",
"} R ` _ ,.' w.G X.Y./.2XqXh.9X.XA.MXdX|.dX7X/.].].8XaXu.Z U Y.).-.V u C ` 3 j G Z j ",
";X} `.>.j G j 9.t.s.0.wX0X,XxXOXJ.(.%XV._.9X].Q.l.uXfX,X..z Q.1.L.L.- j [ 3 k b F j ",
"7XR } -Xs._ n [ L.^.R.].h.3XxXiXJ.S.K.r.4.E.e.$X*XaX0X=Xh.y.2 X.h.dXQ t : b 0._ k , ",
"P.*XL._ *Xw._ ,.R OX0X0.h.U.V.6.%XaXV.K.8.u.].!.`.lXrXY.t.=X] 1 *X'.} A G : G C k j ",
"s.[ _ M =X!.h.s.9./.P.` q./ D ~ V.dX9X8.V.r.%Xh.w.h.=X<XXX1.d.P : C.;Xt k k F j > > ",
"a.a.B 4 B X.<.~.a.9.Z 0.E L L 4.q.qXkXZ '.%X<.1.` 1.d.x.0X_.[ XX! } ;XR t C C : , C ",
"] ] ,.X.1.X.m Q.4X`.E Z Z H c D =.[.R.t.:.,X/ u.+.t.l.n.0XaX7.0.#Xs N.(.: C W I.t } ",
" .s./.`.j.p._ ~  X7X4XR.L r.P 1.<./ 2.h.q.R.L.OX`.[ w.a.' `. X;X XH.} ;X` l } mXXXA ",
",.[ 7X0XW.j.5X0X;Xt.&.R.E 7.r.t.X.1.=./ E.` '.8.P b n _ a.>.s.9.} F t ` l t } } Q.~.",
"} *X`..X4XvXwXeX3Xs.>.P OX.XE [ N N e...K Z { P.} 0.w._ ,.' _ ] [ _ C 3 ] k : # K e.",
"-XlX-X-XL.4X4XvXwXj.>.*X;XsX'.,.H q.u.1.P ` j `.oX-.n ` M ] 3 ] [ =X[ n ] 3 [ L.q.w.",
"lX*X-X4X-XwX=X,.d.=XW.*X0X-X[ M [ E E.*.n E G P 7X`.j [ H n n 3 _ s.=XG _ _ I.0XvXxX",
"w.-XlX;X4XlX*X=X*X=X4XW.7X-XL.,.E Z F [ [ { L.: k P.[ c G R [ C n G G C t k 0XMX*Xo.",
"4 C.nXNX;X-X*XzXzX0X`.wXlXI.>.` W R C y 9.P.C C j G [ k G k 3 j n k G _ j n } =Xa.M ",
"b.-XnXzXdXlXhXpXbX;X.X-X XP.G J 7.oX7X7.C p 9.} k C C C j 1 M 3 # _ M : [ k M 3 ` 0.",
" .].wX<X5XlXcXcXzX XoX0.-.H I J.W.lXMX;XE.k /.sXw.d C.M - 9 - g C M n : C k & j } P.",
"j.}./.`.cXBXcXlX;XmX;X.X*.4 M K 7.XXcX;X;X-XQ D.7XH.{ h.3 < z < j 1 # k :   l l { Q ",
";XbXNXuXF.].=XrXwX0XMX5.J B U U ;XBXpX X9.].R.u D.mXL 1.+.M / x C G k j y = [ `.sX7X",
"s.I.P.7XxX].<.a.<X*X(.-X5Xl./ V.I.sXzXvX9Xa.....A K ].u !.N ( ^ _ t [ o.k - n [ #.#.",
"b.a.=X=XP.`.7.M.[ L.6.dX$Xi.J.V.9..X*XY.j.~.$Xf.u.6 U ) ) %X; u.~.9 k ' L % I ~..X.X",
"lXwX=X5XxX4X4XbXI.7.B.`.0Xk.@.i.o.] 1Xk.o.j.$.$.f.z.m D / 9X2 y.~.[ < B ;.+ P j.E.w.",
"dX0XeX5X4X*Xb.2XaX/.u.<./ / f.@.O.O.$.d.i.^ @.x. .O.d.2 2 $X<.O o._ : _ B * } ] O. .",
"#.$.>X5XxXrX>X5XeX:Xn.z.^ v 6 f.$.#.b.#.+.6 c.n...6 | @.2 ^ $Xh 6 X., B 5 % q 5 N I ",
"] p.`.`.4XrXtXc.c.>Xc.c.O.^ m v @.d.d.i. .k.c.f.c.g.c.@.k.2 $XO.h ~.6 g N @ w x.+.+.",
"*.w.3X,Xl.z.f.+.f.^ @.X./ / J.^ 1 y.U ( L g / ( X.k.O.^ i.v 2 u.q m 4 r H > 8 O._ 3 ",
"9.P.*XW.+.| | +.^ / m m D 2 m / / ; y._.).L ( u.t.M o.M :.) $ m h z B r ..> e 5 M > ",
"&.N 4 6 5 v.v.g.<Xj.:.J.) D ^ y.[.u.L _.%XaX) U D.T.'.-X( ( D @ d , :.c w.4 s 3 3 : ",
",X4  .<X>X>Xc.k.:Xi.Q.OXV.D / m h K.J.) |.sXiXyXl  XuX.X8.g % % p + / g / U   Z l & ",
">X$.b.:Xx.v.n.$Xm.>X$X1./ :.h.[.$X[.u.( g V.fXmXyXT sXoXy.y.y.g p r 4 D N N X L A q ",
">X:Xn.@.%.g.f.n.m.:Xk.p.<.1X<X>X1XrXtXqX[./ XX3XnXoXD.XXh.h.w.E ; a 2 ( / m + a j > ",
"f.f.k.5 +.%.$.%.@.@.x.$.$.$.v.@.$X$X$XqX%XK.T oXsX@XA A.[.<.X.I D a m 2 g 4 O 8 } C ",
"..2.i.@. .5 O.O. .X. .X.<.=.X.y. .Y.).oXC.pX}.M.uXK.y g D I v 6 I y d * + g 8 O r.h ",
"2 ^ g.>X>XO./ K y.o.1...U J., + ).W r.P.G.pXoX_.! G.L D % S b 6 h y r % g g + + W : ",
"A 6 m.m.%.p.T.7.I E.Z T.4.K.V.S  XG.#X}.I.3.C %XyXT ) O p g K 1.y p q r 2 g % ; Z < ",
"< ..$.$.d.,.R C.-.( L S } ) }.M.H.}.gXgX).q.m -.( V.8 S / ^ 1 h y h y ; @ ; + 0 9.i ",
"z 4 ..e...4.^.C.L Z R q . ! 7.F.~ l R ^.oXZ.n Y.!._.h g m 2 R 0 1 E Z ; * q * h +X& ",
"U m z u S 7.6X/.J P .XZ. X~ } ~ I.k { { S./.{ 3.R.eXh.> y 6.+XQ ; y...- p a O ~ G.  ",
"v u , u W A ( e.U.D r.3.6XI.H.C.XXS s 0 A q.3.G.B.`.a.t.g h G.C s ( -.$ O . X 0 s . ",
"i % z b g H -.y.t.E W h ! ! ! C.! S S Q O 0 e & 9 & C 8.4.B.t p d q Q *   . O % . e ",
"q A V y D D ( 8.&.V %XR.U q d 6XC.t s s e e   . . 9 & * d K.O 8 T ~ ~ S + O O 8 f 9 ",
"= = ; D g D ( v y.Q OX[./.y H.).(.F A ~ y . e t s } W S u % * @ h oXh Q O + 8 O 9 7 ",
"V R c 4.U 2 > u.u., ( q.t.i S.0X].&.R.e.z p t 7 } Q L u.q.u.q./ 9 d W + 8 + O r e e ",
"5.4.U g v ( x x m ; + 2.I ; L H 2.e.d.l.&.C T Y Z.l > ( ..U [.,X).d p . r 8 O r 8 8 ",
", v z - $ :.Q.l.Q.L y C v = ( N d.d.B <._ F t #XH.# t } E c # I |.( X r r 8 a a e w ",
";.9X5.v < U y./ t.$ O $ % ; V ..X.o.X.m j o ! #XH.! 7 ! y . $ E r S y O a 8 8 a w w ",
"( q.R r.-.v v B < ;   &   8 h < j.=.z E q } G.G.! s T T T * * y g ( h r a f a 8 e f ",
"z > Z g S g , D ..y 9 9 . w r 4 1.1.; r e d ~ N.} s Y T d p * + 2 2 / g 8 a r r s Y "
};
